<?xml version="1.0" standalone="no"?>
<!DOCTYPE svg PUBLIC "-//W3C//DTD SVG 1.1//EN" "http://www.w3.org/Graphics/SVG/1.1/DTD/svg11.dtd" >
<svg xmlns="http://www.w3.org/2000/svg" xmlns:xlink="http://www.w3.org/1999/xlink" version="1.1">
<metadata></metadata>
<defs>
<font id="core_sans_nr15_thin_regular" horiz-adv-x="1265" >
<font-face units-per-em="2048" ascent="1638" descent="-410" />
<missing-glyph horiz-adv-x="614" />
<glyph horiz-adv-x="682" />
<glyph unicode="&#xd;" horiz-adv-x="485" />
<glyph horiz-adv-x="0" />
<glyph unicode=" "  horiz-adv-x="614" />
<glyph unicode="&#x09;" horiz-adv-x="614" />
<glyph unicode="&#xa0;" horiz-adv-x="614" />
<glyph unicode="!" horiz-adv-x="450" d="M195 61q0 55 5.5 70.5t24.5 15.5t25 -15.5t6 -70.5t-6 -70.5t-25 -15.5t-24.5 15.5t-5.5 70.5zM205 358v1063q0 5 4 9t8 4h16q5 0 9 -4t4 -9v-1063q0 -4 -4 -8t-9 -4h-16q-5 0 -8.5 4t-3.5 8z" />
<glyph unicode="&#x22;" horiz-adv-x="798" d="M225 889v532q0 5 4.5 9t8.5 4h16q4 0 8 -4t4 -9v-532q0 -5 -4 -8.5t-8 -3.5h-16q-5 0 -9 4t-4 8zM532 889v532q0 5 4 9t9 4h16q4 0 8 -4t4 -9v-532q0 -5 -3.5 -8.5t-8.5 -3.5h-16q-5 0 -9 4t-4 8z" />
<glyph unicode="#" horiz-adv-x="1390" d="M92 434v12q0 5 3.5 9t8.5 4h242l89 508h-240q-13 0 -13 12v12q0 5 4 9t9 4h246l73 417q2 13 12 13h21q5 0 9 -3.5t3 -9.5l-73 -417h502l73 417q2 13 12 13h21q5 0 9 -3.5t3 -9.5l-73 -417h253q5 0 8.5 -4t3.5 -9v-12q0 -12 -12 -12h-260l-88 -508h256q5 0 8.5 -4t3.5 -9 v-12q0 -12 -12 -12h-263l-71 -410q-2 -12 -12 -12h-21q-5 0 -9 4t-3 8l72 410h-503l-71 -410q-2 -12 -12 -12h-20q-5 0 -9.5 4t-3.5 8l72 410h-236q-12 0 -12 12zM391 459h502l89 508h-503z" />
<glyph unicode="$" horiz-adv-x="1073" d="M123 1126q0 139 108 228t289 102v170q0 4 4 8t8 4h17q5 0 8.5 -4t3.5 -8v-168h19q166 0 282 -42q8 -3 7 -12l-2 -20q-1 -12 -12 -8q-118 45 -275 45h-19v-661q210 -74 305 -170t95 -246q0 -154 -106 -252.5t-294 -113.5v-166q0 -5 -4 -9t-8 -4h-17q-4 0 -8 4t-4 9v164 q-9 -1 -26 -1q-191 0 -348 82q-11 6 -10 17l2 18q2 13 15 5q157 -85 341 -85h26v719q-203 63 -300 156t-97 239zM164 1126q0 -122 84 -206t272 -146v644q-164 -13 -260 -93t-96 -199zM561 14q173 16 266 105.5t93 226.5q0 129 -84.5 215.5t-274.5 155.5v-703z" />
<glyph unicode="%" horiz-adv-x="1765" d="M184 1081q0 162 80 264.5t213 102.5t213 -102.5t80 -264.5t-80 -264t-213 -102t-213 102t-80 264zM225 1081q0 -145 68.5 -237t183.5 -92t183.5 92t68.5 237q0 148 -67.5 239t-184.5 91q-115 0 -183.5 -92.5t-68.5 -237.5zM352 14l1008 1413q4 7 10 7h26q16 0 8 -15 l-1007 -1413q-3 -6 -10 -6h-27q-15 0 -8 14zM995 350q0 162 80 264.5t213 102.5t213 -102.5t80 -264.5t-80 -264t-213 -102t-213 102t-80 264zM1036 350q0 -145 68.5 -237.5t183.5 -92.5t183.5 92.5t68.5 237.5q0 148 -67.5 239t-184.5 91q-115 0 -183.5 -92.5t-68.5 -237.5 z" />
<glyph unicode="&#x26;" horiz-adv-x="1251" d="M102 328q0 151 82.5 257t268.5 189q-131 127 -182.5 217t-51.5 176q0 132 91 211.5t229 79.5t231.5 -84.5t93.5 -222.5q0 -120 -80.5 -211.5t-263.5 -175.5l473 -469q92 175 99 427q0 11 9 11h19q10 0 10 -10q-7 -269 -110 -455l258 -254q6 -5 4 -9.5t-11 -4.5h-26 q-4 0 -8 4l-236 232q-167 -265 -483 -265q-83 0 -157.5 23t-132.5 66t-92 112.5t-34 155.5zM143 328q0 -101 53.5 -175t137 -109.5t184.5 -35.5q300 0 457 254l-494 486q-186 -84 -262 -183t-76 -237zM260 1167q0 -79 46.5 -158.5t185.5 -217.5q186 83 259 166.5t73 193.5 q0 120 -79 195t-208 75q-124 0 -200.5 -69t-76.5 -185z" />
<glyph unicode="'" horiz-adv-x="471" d="M215 889v532q0 5 4 9t8 4h18q11 0 11 -13v-532q0 -12 -11 -12h-18q-12 0 -12 12z" />
<glyph unicode="(" horiz-adv-x="653" d="M225 635q0 450 301 895q4 6 11 6h16q7 0 9.5 -5t-2.5 -11q-294 -439 -294 -885q0 -445 294 -885q5 -6 2.5 -11t-9.5 -5h-16q-7 0 -11 6q-301 444 -301 895z" />
<glyph unicode=")" horiz-adv-x="653" d="M85.5 -261q-2.5 5 2.5 11q294 440 294 885q0 446 -294 885q-5 6 -2.5 11t9.5 5h17q6 0 10 -6q301 -445 301 -895q0 -451 -301 -895q-4 -6 -10 -6h-17q-7 0 -9.5 5z" />
<glyph unicode="*" horiz-adv-x="1040" d="M146 475q-2 4 0 9.5t6 7.5l325 188l-325 188q-4 2 -6 7.5t0 9.5l9 14q6 10 17 4l326 -188v377q0 4 4 8t8 4h16q5 0 9 -4t4 -8v-377l325 188q4 2 10 1t8 -5l8 -14q6 -10 -5 -17l-327 -188l327 -188q11 -7 5 -17l-8 -14q-2 -4 -8 -5t-10 1l-325 187v-376q0 -4 -4 -8t-9 -4 h-16q-4 0 -8 4t-4 8v376l-326 -187q-11 -6 -17 4z" />
<glyph unicode="+" d="M143 673v13q0 12 14 12h455v455q0 4 4 8t9 4h16q5 0 8.5 -3.5t3.5 -8.5v-455h457q12 0 12 -12v-13q0 -11 -12 -11h-457v-455q0 -5 -3.5 -8.5t-8.5 -3.5h-16q-5 0 -9 4t-4 8v455h-455q-14 0 -14 11z" />
<glyph unicode="," horiz-adv-x="573" d="M200 -177q-5 7 1 16q53 81 53 179v43q0 54 6 70t25 16t24.5 -15.5t5.5 -70.5v-34q0 -122 -82 -224q-3 -5 -8.5 -5.5t-9.5 4.5z" />
<glyph unicode="-" horiz-adv-x="831" d="M143 673v13q0 5 4 8.5t9 3.5h520q12 0 12 -12v-13q0 -11 -12 -11h-520q-13 0 -13 11z" />
<glyph unicode="." horiz-adv-x="573" d="M256 61q0 55 6 70.5t25 15.5t24.5 -15.5t5.5 -70.5t-5.5 -70.5t-24.5 -15.5t-25 15.5t-6 70.5z" />
<glyph unicode="/" horiz-adv-x="927" d="M4 -211l873 1737q3 6 10 6h22q16 0 9 -14l-873 -1737q-3 -6 -10 -6h-23q-15 0 -8 14z" />
<glyph unicode="0" horiz-adv-x="1146" d="M96 717q0 338 126 539.5t351 201.5t351.5 -201.5t126.5 -539.5t-126.5 -540t-351.5 -202t-351 201.5t-126 540.5zM137 717q0 -327 112.5 -516t323.5 -189t324 189.5t113 515.5t-113 515t-324 189t-323.5 -189t-112.5 -515z" />
<glyph unicode="1" horiz-adv-x="1146" d="M262 1162q-5 10 4 14l377 250q12 8 24 8h16q4 0 8 -4t4 -9v-1409q0 -4 -3.5 -8t-8.5 -4h-16q-5 0 -9 4t-4 8v1374l-365 -243q-9 -6 -15 1z" />
<glyph unicode="2" horiz-adv-x="1146" d="M143 12v21q0 4 4 8q271 240 525 543q121 145 173 264t52 237q0 165 -105 250.5t-286 85.5q-156 0 -284 -59q-9 -4 -11 7l-3 20q-2 8 8 12q127 57 292 57q197 0 313.5 -95.5t116.5 -277.5q0 -129 -55.5 -253t-180.5 -273q-263 -313 -501 -522h737q12 0 12 -12v-13 q0 -12 -12 -12h-782q-5 0 -9 4t-4 8z" />
<glyph unicode="3" horiz-adv-x="1146" d="M157 38l2 16q2 14 15 7q132 -49 301 -49q218 0 332.5 95t114.5 239q0 178 -130 274t-419 114q-5 0 -9 4t-4 8v14q0 4 4 8t9 4q117 5 211.5 30t165.5 69.5t110 113.5t39 158q0 121 -95 199.5t-294 78.5q-168 0 -303 -60q-5 -3 -10.5 -1t-6.5 7l-3 17q-2 8 9 13 q143 61 314 61q211 0 320.5 -85.5t109.5 -229.5q0 -330 -439 -389q236 -32 349 -129.5t113 -276.5q0 -168 -126 -270.5t-362 -102.5q-165 0 -310 51q-9 3 -8 12z" />
<glyph unicode="4" horiz-adv-x="1146" d="M82 371v14q0 11 7 21l730 1018q7 10 18 10h19q10 0 10 -13v-1026h184q13 0 13 -12v-12q0 -13 -13 -13h-184v-346q0 -12 -10 -12h-18q-5 0 -9 4t-4 8v346h-731q-4 0 -8 4t-4 9zM129 395h696v973z" />
<glyph unicode="5" horiz-adv-x="1146" d="M183 48l2 13q2 16 18 10q130 -59 287 -59q217 0 339 111t122 293q0 186 -105.5 284.5t-303.5 98.5q-147 0 -290 -51q-6 -2 -12 1t-6 9v663q0 5 4 9t9 4h684q12 0 12 -13v-12q0 -12 -12 -12h-656v-609q125 48 267 48q209 0 329.5 -107t120.5 -313q0 -201 -131 -321 t-368 -120q-164 0 -302 56q-10 3 -8 17z" />
<glyph unicode="6" horiz-adv-x="1146" d="M127 664q0 205 40.5 359t116 248.5t177.5 140.5t231 46q130 0 238 -44q9 -3 7 -12l-2 -19q-1 -10 -13 -6q-106 44 -238 44q-91 0 -168 -27t-142 -85.5t-110.5 -146.5t-70.5 -214.5t-25 -283.5v-19q78 117 191 181.5t231 64.5q211 0 334 -125.5t123 -335.5 q0 -99 -36 -185.5t-96.5 -144.5t-140.5 -91.5t-166 -33.5q-100 0 -186 41.5t-152.5 124t-104.5 216.5t-38 307zM170 588q9 -148 48 -261.5t100 -180.5t133.5 -100.5t154.5 -33.5q166 0 283 122t117 296q0 190 -110 307t-306 117q-124 0 -235.5 -72t-184.5 -194z" />
<glyph unicode="7" horiz-adv-x="1146" d="M150 1409v12q0 13 12 13h788q4 0 8.5 -4t4.5 -9v-11q0 -12 -6 -26l-555 -1376q-3 -8 -12 -8h-23q-18 0 -11 15l557 1382h-751q-12 0 -12 12z" />
<glyph unicode="8" horiz-adv-x="1146" d="M111 350q0 144 101.5 246.5t283.5 165.5q-322 114 -322 371q0 134 117 229.5t282 95.5q185 0 292.5 -92.5t107.5 -232.5q0 -263 -332 -381q120 -45 199 -91.5t121 -98t58.5 -102.5t16.5 -118q0 -166 -132 -266.5t-331 -100.5q-201 0 -331.5 99t-130.5 276zM152 352 q0 -155 117.5 -247.5t303.5 -92.5q183 0 302.5 93.5t119.5 238.5q0 60 -17.5 108t-63.5 99.5t-138 99.5t-229 92q-194 -66 -294.5 -165t-100.5 -226zM215 1133q0 -126 88 -213.5t285 -149.5q344 118 344 363q0 125 -94 206.5t-265 81.5q-152 0 -255 -84.5t-103 -203.5z" />
<glyph unicode="9" horiz-adv-x="1146" d="M100 1004q0 132 61.5 237t161.5 161t216 56q100 0 186 -41.5t152.5 -123.5t104.5 -216t38 -307q0 -205 -40.5 -359t-116 -248.5t-177.5 -141t-231 -46.5q-130 0 -239 44q-8 3 -6 13l2 18q1 10 13 6q106 -44 238 -44q114 0 206.5 44t162.5 133.5t108.5 237t38.5 343.5v18 q-78 -116 -191 -180.5t-231 -64.5q-211 0 -334 125.5t-123 335.5zM141 1004q0 -190 110 -307t306 -117q124 0 235.5 72t184.5 194q-7 119 -34.5 216.5t-68.5 163t-95.5 110.5t-113.5 65t-124 20q-166 0 -283 -121.5t-117 -295.5z" />
<glyph unicode=":" horiz-adv-x="573" d="M256 61q0 55 6 70.5t25 15.5t24.5 -15.5t5.5 -70.5t-5.5 -70.5t-24.5 -15.5t-25 15.5t-6 70.5zM256 999q0 55 6 70.5t25 15.5t24.5 -15.5t5.5 -70.5t-5.5 -70.5t-24.5 -15.5t-25 15.5t-6 70.5z" />
<glyph unicode=";" horiz-adv-x="573" d="M200 -177q-5 7 1 16q53 81 53 179v43q0 54 6 70t25 16t24.5 -15.5t5.5 -70.5v-34q0 -122 -82 -224q-3 -5 -8.5 -5.5t-9.5 4.5zM254 999q0 55 6 70.5t25 15.5t24.5 -15.5t5.5 -70.5t-5.5 -70.5t-24.5 -15.5t-25 15.5t-6 70.5z" />
<glyph unicode="&#x3c;" d="M143 663v34q0 7 7 11l958 471q14 7 14 -10v-19q0 -7 -6 -10l-935 -460l935 -460q6 -3 6 -10v-20q0 -16 -14 -9l-958 471q-7 4 -7 11z" />
<glyph unicode="=" d="M143 449v12q0 12 13 12h953q13 0 13 -12v-12q0 -13 -13 -13h-953q-13 0 -13 13zM143 899v12q0 13 13 13h953q13 0 13 -13v-12q0 -12 -13 -12h-953q-13 0 -13 12z" />
<glyph unicode="&#x3e;" d="M143 190v20q0 6 7 10l934 460l-934 460q-7 4 -7 10v19q0 17 15 10l958 -471q6 -3 6 -11v-34q0 -8 -6 -11l-958 -471q-15 -7 -15 9z" />
<glyph unicode="?" horiz-adv-x="1044" d="M123 1382q0 9 8 13q140 63 306 63q206 0 324.5 -83t118.5 -238q0 -106 -63 -200.5t-193 -186.5q-103 -73 -136.5 -151t-33.5 -210v-31q0 -4 -4 -8t-9 -4h-16q-5 0 -8.5 4t-3.5 8v39q0 151 41 232.5t143 152.5q126 88 183 173.5t57 185.5q0 135 -102.5 207.5t-297.5 72.5 q-158 0 -298 -67q-12 -6 -14 4zM402 61q0 52 6.5 69t24.5 17t24.5 -17t6.5 -69q0 -53 -6.5 -69.5t-24.5 -16.5t-24.5 16.5t-6.5 69.5z" />
<glyph unicode="@" horiz-adv-x="1961" d="M113 561q0 190 67 357t181.5 285.5t273.5 186.5t338 68q188 0 351 -65t278 -177.5t181 -270.5t66 -339q0 -215 -101.5 -357.5t-260.5 -142.5q-91 0 -142 64.5t-59 179.5q-168 -231 -444 -231q-142 0 -243 95.5t-101 240.5q0 122 46 228t121 177t169 111.5t190 40.5 q232 0 357 -166q18 -26 12 -58l-72 -397q4 -130 45.5 -187t116.5 -57q96 0 171 62t114.5 166t39.5 231q0 172 -62 322.5t-170.5 259t-265 171t-337.5 62.5q-170 0 -321.5 -65.5t-260.5 -179t-173 -274t-64 -341.5q0 -182 65.5 -341.5t178.5 -272t269 -177.5t332 -65 q284 0 492 132q7 5 12 -3l8 -16q5 -9 -4 -14q-217 -136 -508 -136q-188 0 -352.5 68.5t-281.5 186.5t-184.5 284t-67.5 354zM539 467q0 -137 85 -224t218 -87q267 0 438 243l74 420q-115 156 -330 156q-92 0 -180 -39t-155.5 -106t-108.5 -162.5t-41 -200.5z" />
<glyph unicode="A" d="M33 10l571 1413q4 11 12 11h29q8 0 12 -11l572 -1413q3 -10 -6 -10h-27q-9 0 -12 10l-169 422h-768l-169 -422q-3 -10 -12 -10h-27q-9 0 -6 10zM262 469h737l-368 920z" />
<glyph unicode="B" horiz-adv-x="1241" d="M184 12v1409q0 5 4 9t9 4h419q202 0 324.5 -98.5t122.5 -260.5q0 -120 -55 -204.5t-164 -122.5q295 -80 295 -365q0 -182 -131 -282.5t-379 -100.5h-432q-5 0 -9 4t-4 8zM225 37h404q227 0 348 90t121 256q0 156 -99 250t-280 94h-494v-690zM225 764h494q147 0 225 88 t78 223q0 148 -108 235t-298 87h-391v-633z" />
<glyph unicode="C" horiz-adv-x="1210" d="M113 717q0 336 193 538.5t517 202.5q157 0 269 -41q10 -4 9 -14l-2 -17q-2 -12 -15 -7q-107 42 -259 42q-310 0 -488.5 -191t-178.5 -513t178.5 -513.5t488.5 -191.5q162 0 266 44q12 5 14 -7l2 -16q1 -11 -9 -15q-114 -43 -275 -43q-326 0 -518 202.5t-192 539.5z" />
<glyph unicode="D" horiz-adv-x="1351" d="M184 12v1409q0 5 4 9t9 4h245q370 0 583.5 -185.5t213.5 -531.5t-213.5 -531.5t-583.5 -185.5h-245q-5 0 -9 4t-4 8zM225 37h217q171 0 308 41.5t238 123.5t155.5 213t54.5 302t-54.5 302t-155.5 213t-238 123.5t-308 41.5h-217v-1360z" />
<glyph unicode="E" horiz-adv-x="1124" d="M184 12v1409q0 5 4 9t9 4h803q5 0 9.5 -4t4.5 -9v-12q0 -12 -14 -12h-775v-637h726q12 0 12 -12v-13q0 -12 -12 -12h-726v-686h795q12 0 12 -12v-13q0 -12 -12 -12h-823q-5 0 -9 4t-4 8z" />
<glyph unicode="F" horiz-adv-x="1075" d="M184 12v1409q0 5 4 9t9 4h804q5 0 9 -4t4 -9v-12q0 -12 -13 -12h-776v-631h721q12 0 12 -12v-13q0 -12 -12 -12h-721v-717q0 -12 -12 -12h-16q-13 0 -13 12z" />
<glyph unicode="G" horiz-adv-x="1404" d="M113 717q0 210 91.5 379t258.5 265.5t379 96.5q204 0 352 -60q13 -5 11 -16l-2 -17q-2 -11 -15 -5q-137 61 -346 61q-147 0 -275.5 -53.5t-218.5 -147t-142 -224t-52 -279.5q0 -199 89.5 -359.5t253.5 -253t373 -92.5q199 0 330 58v618h-454q-13 0 -13 12v13q0 12 13 12 h485q10 0 10 -12v-658q0 -13 -10 -16q-158 -64 -361 -64q-168 0 -310 56.5t-239.5 155.5t-152.5 235.5t-55 294.5z" />
<glyph unicode="H" horiz-adv-x="1386" d="M184 13v1408q0 13 13 13h16q12 0 12 -13v-637h936v637q0 13 13 13h16q12 0 12 -13v-1408q0 -13 -12 -13h-16q-13 0 -13 13v735h-936v-735q0 -13 -12 -13h-16q-13 0 -13 13z" />
<glyph unicode="I" horiz-adv-x="430" d="M195 13v1407q0 14 12 14h16q5 0 9 -4.5t4 -9.5v-1407q0 -13 -13 -13h-16q-12 0 -12 13z" />
<glyph unicode="J" horiz-adv-x="862" d="M42 48l2 18q1 13 15 6q108 -60 234 -60q344 0 344 430v978q0 14 12 14h17q12 0 12 -14v-974q0 -471 -383 -471q-135 0 -247 60q-7 4 -6 13z" />
<glyph unicode="K" horiz-adv-x="1146" d="M184 12v1408q0 5 4 9.5t9 4.5h16q12 0 12 -14v-648l766 655q7 7 15 7h41q5 0 5.5 -3t-3.5 -6l-768 -659l856 -758q4 -3 3.5 -5.5t-5.5 -2.5h-41q-9 0 -15 6l-854 752v-746q0 -12 -12 -12h-16q-13 0 -13 12z" />
<glyph unicode="L" horiz-adv-x="1110" d="M184 12v1408q0 6 4 10t9 4h16q12 0 12 -14v-1383h831q13 0 13 -12v-13q0 -12 -13 -12h-859q-5 0 -9 4t-4 8z" />
<glyph unicode="M" horiz-adv-x="1687" d="M184 12v1409q0 13 13 13h26q7 0 10 -7l611 -884l610 884q4 7 10 7h27q12 0 12 -14v-1408q0 -12 -12 -12h-16q-13 0 -13 12v1358l-592 -858q-7 -12 -16 -12h-20q-10 0 -17 12l-592 858v-1358q0 -12 -12 -12h-16q-13 0 -13 12z" />
<glyph unicode="N" horiz-adv-x="1409" d="M184 13v1408q0 13 13 13h28q8 0 15 -10l944 -1365v1361q0 14 12 14h16q5 0 9 -4t4 -10v-1407q0 -13 -13 -13h-28q-9 0 -15 9l-944 1363v-1359q0 -13 -12 -13h-16q-13 0 -13 13z" />
<glyph unicode="O" horiz-adv-x="1425" d="M113 717q0 212 71.5 379t209 264.5t319.5 97.5t319.5 -97.5t209 -264.5t71.5 -379q0 -158 -42 -294t-118 -235.5t-189.5 -156t-250.5 -56.5t-250.5 56.5t-189.5 156t-118 235.5t-42 294zM154 717q0 -201 66 -360t194 -252t299 -93q172 0 300 93t193.5 251.5t65.5 360.5 t-65.5 360.5t-193.5 251t-300 92.5q-171 0 -299 -92.5t-194 -251.5t-66 -360z" />
<glyph unicode="P" horiz-adv-x="1155" d="M184 12v1409q0 13 13 13h331q250 0 392.5 -109.5t142.5 -310.5q0 -203 -142.5 -313.5t-392.5 -110.5h-303v-578q0 -12 -12 -12h-16q-13 0 -13 12zM225 627h303q232 0 363 98.5t131 288.5q0 187 -131 285t-363 98h-303v-770z" />
<glyph unicode="Q" horiz-adv-x="1425" d="M113 717q0 212 71.5 379t209 264.5t319.5 97.5t319.5 -97.5t209 -264.5t71.5 -379q0 -203 -66 -366t-193.5 -263t-297.5 -111q1 -57 25 -107.5t63 -78.5q77 -57 219 -57q95 0 160 21q14 5 16 -6l2 -17q2 -11 -8 -14q-69 -21 -168 -21q-161 0 -250 65q-45 34 -72.5 92 t-27.5 121h-2q-137 0 -250.5 56.5t-189.5 156t-118 235.5t-42 294zM154 717q0 -201 66 -360t194 -252t299 -93q172 0 300 93t193.5 251.5t65.5 360.5t-65.5 360.5t-193.5 251t-300 92.5q-171 0 -299 -92.5t-194 -251.5t-66 -360z" />
<glyph unicode="R" horiz-adv-x="1191" d="M184 12v1409q0 13 13 13h358q242 0 378 -105t136 -287q0 -142 -87 -240t-249 -134l410 -655q3 -5 1.5 -9t-7.5 -4h-26q-7 0 -12 8l-407 654q-90 -11 -137 -11h-330v-639q0 -12 -12 -12h-16q-13 0 -13 12zM225 688h330q227 0 350 95t123 259t-123 259.5t-350 95.5h-330 v-709z" />
<glyph unicode="S" horiz-adv-x="1073" d="M123 1126q0 151 126.5 241.5t330.5 90.5q162 0 279 -41q12 -4 10 -15l-2 -19q-2 -11 -14 -6q-112 44 -273 44q-188 0 -302 -82.5t-114 -212.5q0 -123 84.5 -206.5t275.5 -146.5q231 -75 334 -173t103 -256q0 -168 -124 -268.5t-343 -100.5q-190 0 -348 82q-11 6 -10 17 l2 19q2 11 15 4q156 -85 341 -85q205 0 315.5 91.5t110.5 242.5q0 139 -96 227.5t-319 162.5q-199 66 -290.5 156.5t-91.5 233.5z" />
<glyph unicode="T" horiz-adv-x="1048" d="M20 1409v12q0 5 4.5 9t9.5 4h981q13 0 13 -13v-12q0 -12 -13 -12h-470v-1385q0 -12 -13 -12h-16q-12 0 -12 12v1385h-470q-14 0 -14 12z" />
<glyph unicode="U" horiz-adv-x="1425" d="M184 545v876q0 13 13 13h16q12 0 12 -13v-870q0 -137 37.5 -242t105 -169t154.5 -96t191 -32t191 32t154 96t104.5 169t37.5 242v870q0 13 12 13h17q12 0 12 -13v-876q0 -143 -40.5 -254t-113 -179t-167 -102.5t-207.5 -34.5q-112 0 -206.5 34.5t-167.5 102.5t-114 179 t-41 254z" />
<glyph unicode="V" horiz-adv-x="1327" d="M65 1418q-2 6 0.5 11t9.5 5h20q7 0 11 -9l554 -1380l552 1380q4 9 12 9h23q6 0 8.5 -5.5t0.5 -11.5l-570 -1410q-3 -7 -11 -7h-29q-8 0 -11 7z" />
<glyph unicode="W" horiz-adv-x="1994" d="M65 1419q-6 15 8 15h23q10 0 12 -9l463 -1381l395 1379q4 11 12 11h35q8 0 12 -11l394 -1379l464 1381q2 9 11 9h24q14 0 8 -15l-479 -1409q-3 -10 -12 -10h-33q-9 0 -12 11l-395 1379l-394 -1379q-3 -11 -12 -11h-33q-9 0 -12 10z" />
<glyph unicode="X" horiz-adv-x="1310" d="M55.5 7.5q-2.5 4.5 1.5 9.5l564 708l-551 694q-5 5 -2 10t10 5h27q6 0 11 -7l531 -668l532 668q5 7 10 7h28q7 0 10 -5t-2 -10l-551 -694l563 -708q5 -5 2 -9.5t-10 -4.5h-30q-5 0 -10 6l-542 682l-542 -682q-5 -6 -10 -6h-29q-8 0 -10.5 4.5z" />
<glyph unicode="Y" horiz-adv-x="1290" d="M65 1429q2 5 9 5h24q10 0 13 -7l530 -815l530 815q3 7 13 7h24q7 0 9 -5t-2 -10l-553 -848v-559q0 -12 -13 -12h-16q-12 0 -12 12v559l-554 848q-4 5 -2 10z" />
<glyph unicode="Z" horiz-adv-x="1142" d="M82 12v12q0 13 7 23l902 1350h-866q-12 0 -12 12v12q0 13 12 13h903q4 0 8 -4t4 -9v-10q0 -16 -8 -27l-901 -1347h917q13 0 13 -12v-13q0 -12 -13 -12h-954q-4 0 -8 4t-4 8z" />
<glyph unicode="[" horiz-adv-x="784" d="M266 -254v1778q0 12 13 12h432q12 0 12 -12v-13q0 -12 -12 -12h-404v-1728h404q12 0 12 -13v-12q0 -12 -12 -12h-432q-13 0 -13 12z" />
<glyph unicode="\" horiz-adv-x="927" d="M4 1518q-7 14 7 14h24q7 0 10 -6l873 -1737q7 -14 -9 -14h-20q-9 0 -13 8z" />
<glyph unicode="]" horiz-adv-x="784" d="M61 -242q0 13 13 13h403v1728h-403q-13 0 -13 12v13q0 12 13 12h432q12 0 12 -12v-1778q0 -12 -12 -12h-432q-13 0 -13 12v12z" />
<glyph unicode="^" d="M139 766l459 659q6 9 18 9h29q13 0 19 -9l458 -659q7 -10 -4 -10h-26q-14 0 -19 8l-442 643l-443 -643q-5 -8 -18 -8h-27q-11 0 -4 10z" />
<glyph unicode="_" horiz-adv-x="983" d="M0 -274q0 12 12 12h959q12 0 12 -12v-13q0 -12 -12 -12h-959q-12 0 -12 12v13z" />
<glyph unicode="`" horiz-adv-x="790" d="M208 1492.5q2 2.5 7 2.5h26q11 0 18 -8l257 -313q3 -4 1 -7.5t-7 -3.5h-24q-11 0 -18 8l-259 314q-3 5 -1 7.5z" />
<glyph unicode="a" horiz-adv-x="1075" d="M92 287q0 153 112.5 240t321.5 87h355v88q0 186 -91 266.5t-276 80.5q-168 0 -304 -64q-13 -6 -15 7l-2 14q-2 12 7 16q145 63 312 63q201 0 305.5 -86t104.5 -286v-701q0 -12 -11 -12h-18q-12 0 -12 12v115q-149 -152 -400 -152q-172 0 -280.5 81.5t-108.5 230.5z M133 291q0 -133 95 -206t251 -73q248 0 402 164v402h-351q-192 0 -294.5 -79t-102.5 -208z" />
<glyph unicode="b" horiz-adv-x="1144" d="M164 12v1471q0 12 12 12h17q12 0 12 -12v-545q60 65 149.5 106t198.5 41q102 0 190.5 -37.5t155 -106.5t105 -175.5t38.5 -235.5t-38.5 -235.5t-105 -175.5t-155 -106.5t-190.5 -37.5q-109 0 -198 41t-150 107v-111q0 -12 -12 -12h-17q-12 0 -12 12zM205 176 q61 -76 153 -120t195 -44q194 0 321 138t127 380q0 241 -127.5 380t-320.5 139q-103 0 -195 -44t-153 -120v-709z" />
<glyph unicode="c" horiz-adv-x="993" d="M102 530q0 124 40 229t109 176t163 110.5t200 39.5q162 0 276 -50q11 -5 10 -14l-2 -19q-1 -11 -14 -5q-119 52 -270 52q-201 0 -336 -142t-135 -377q0 -236 136.5 -377t345.5 -141q159 0 268 60q15 7 16 -10l1 -11q1 -10 -10 -16q-110 -60 -275 -60q-230 0 -376.5 151.5 t-146.5 403.5z" />
<glyph unicode="d" horiz-adv-x="1144" d="M102 530q0 129 38.5 235.5t105.5 175.5t155.5 106.5t190.5 37.5q109 0 198.5 -41t149.5 -106v545q0 12 12 12h17q12 0 12 -12v-1471q0 -12 -12 -12h-17q-12 0 -12 12v111q-61 -66 -150 -107t-198 -41q-102 0 -190.5 37.5t-155.5 106.5t-105.5 175.5t-38.5 235.5zM143 530 q0 -122 35 -221.5t96.5 -163.5t142.5 -98.5t175 -34.5q103 0 195 44t153 120v709q-61 76 -153 120t-195 44q-193 0 -321 -139t-128 -380z" />
<glyph unicode="e" horiz-adv-x="1085" d="M102 535q0 252 124 401t321 149q193 0 319.5 -149.5t126.5 -382.5v-25q0 -4 -3.5 -8t-8.5 -4h-838q4 -224 125.5 -364t337.5 -140q162 0 283 77q10 6 12 -4l3 -20q1 -10 -7 -15q-120 -75 -295 -75q-155 0 -270 74.5t-172.5 200t-57.5 285.5zM143 553h809 q-1 217 -112.5 356.5t-292.5 139.5q-177 0 -289 -135.5t-115 -360.5z" />
<glyph unicode="f" horiz-adv-x="651" d="M10 1036v13q0 12 13 12h233v59q0 204 69.5 289.5t209.5 85.5q52 0 109 -13q11 -3 9 -16l-2 -12q-2 -12 -15 -8q-43 12 -108 12q-116 0 -173.5 -77t-57.5 -261v-59h321q13 0 13 -12v-13q0 -12 -13 -12h-321v-1012q0 -12 -12 -12h-17q-12 0 -12 12v1012h-233q-13 0 -13 12z " />
<glyph unicode="g" horiz-adv-x="1144" d="M102 530q0 129 38.5 235.5t105.5 175.5t155.5 106.5t190.5 37.5q104 0 194 -39t154 -108v111q0 12 12 12h17q12 0 12 -12v-1000q0 -243 -101 -351t-325 -108q-81 0 -171.5 19t-158.5 52q-11 5 -9 17l2 22q2 16 18 6q66 -36 153.5 -55.5t165.5 -19.5q204 0 294.5 97.5 t90.5 320.5v74q-62 -68 -153.5 -108t-194.5 -40q-102 0 -190.5 37.5t-155.5 106.5t-105.5 175.5t-38.5 235.5zM143 530q0 -122 35 -221.5t96.5 -163.5t142.5 -98.5t175 -34.5q102 0 195 44t153 120v709q-61 76 -153.5 120t-194.5 44q-193 0 -321 -139t-128 -380z" />
<glyph unicode="h" horiz-adv-x="1144" d="M164 12v1471q0 12 12 12h17q12 0 12 -12v-551q155 153 362 153q195 0 309.5 -119.5t114.5 -340.5v-613q0 -12 -12 -12h-16q-13 0 -13 12v609q0 205 -102 316.5t-281 111.5q-102 0 -199 -45.5t-163 -124.5v-867q0 -12 -12 -12h-17q-12 0 -12 12z" />
<glyph unicode="i" horiz-adv-x="389" d="M164 1409q0 55 6 70.5t25 15.5t24.5 -15.5t5.5 -70.5t-5.5 -70.5t-24.5 -15.5t-25 15.5t-6 70.5zM174 12v1037q0 12 12 12h17q12 0 12 -12v-1037q0 -12 -12 -12h-17q-12 0 -12 12z" />
<glyph unicode="j" horiz-adv-x="409" d="M-101 -389l2 19q1 10 13 6q28 -9 68 -9q113 0 168 63.5t55 209.5v1149q0 12 12 12h16q13 0 13 -12v-1145q0 -90 -19 -152.5t-55.5 -97t-82.5 -49.5t-107 -15q-34 0 -74 10q-10 3 -9 11zM195 1409q0 55 5.5 70.5t24.5 15.5t25 -15.5t6 -70.5t-6 -70.5t-25 -15.5 t-24.5 15.5t-5.5 70.5z" />
<glyph unicode="k" horiz-adv-x="1001" d="M164 12v1471q0 12 12 12h17q12 0 12 -12v-875l640 448q7 5 15 5h31q9 0 10 -6t-7 -11l-632 -444l681 -585q6 -5 5 -10t-10 -5h-31q-7 0 -14 5l-688 589v-582q0 -12 -12 -12h-17q-12 0 -12 12z" />
<glyph unicode="l" horiz-adv-x="389" d="M174 12v1471q0 12 12 12h17q12 0 12 -12v-1471q0 -12 -12 -12h-17q-12 0 -12 12z" />
<glyph unicode="m" horiz-adv-x="1751" d="M164 12v1037q0 12 12 12h17q12 0 12 -12v-121q61 75 148.5 116t181.5 41q106 0 187.5 -49.5t125.5 -142.5q73 89 171.5 140.5t205.5 51.5q171 0 271.5 -114t100.5 -336v-623q0 -12 -12 -12h-16q-13 0 -13 12v617q0 208 -85.5 314t-247.5 106q-100 0 -194 -52t-163 -141 q35 -92 35 -221v-623q0 -12 -12 -12h-17q-12 0 -12 12v617q0 207 -86 313.5t-242 106.5q-94 0 -181 -46.5t-146 -128.5v-862q0 -12 -12 -12h-17q-12 0 -12 12z" />
<glyph unicode="n" horiz-adv-x="1144" d="M164 12v1037q0 12 12 12h17q12 0 12 -12v-117q153 153 362 153q195 0 309.5 -119.5t114.5 -340.5v-613q0 -12 -12 -12h-18q-11 0 -11 12v609q0 205 -102 316.5t-281 111.5q-102 0 -199 -45.5t-163 -124.5v-867q0 -12 -12 -12h-17q-12 0 -12 12z" />
<glyph unicode="o" horiz-adv-x="1159" d="M102 530q0 242 136.5 398.5t341.5 156.5t341 -156.5t136 -398.5t-136 -398.5t-341 -156.5t-341.5 156.5t-136.5 398.5zM143 530q0 -231 123 -374.5t314 -143.5t313.5 143.5t122.5 374.5t-122.5 375t-313.5 144t-314 -144t-123 -375z" />
<glyph unicode="p" horiz-adv-x="1144" d="M164 -383v1432q0 12 12 12h17q12 0 12 -12v-111q60 65 149.5 106t198.5 41q102 0 190.5 -37.5t155 -106.5t105 -175.5t38.5 -235.5t-38.5 -235.5t-105 -175.5t-155 -106.5t-190.5 -37.5q-109 0 -198 41t-150 107v-506q0 -12 -12 -12h-17q-12 0 -12 12zM205 176 q61 -76 153 -120t195 -44q194 0 321 138t127 380q0 241 -127.5 380t-320.5 139q-103 0 -195 -44t-153 -120v-709z" />
<glyph unicode="q" horiz-adv-x="1144" d="M102 530q0 129 38.5 235.5t105.5 175.5t155.5 106.5t190.5 37.5q109 0 198.5 -41t149.5 -106v111q0 12 12 12h17q12 0 12 -12v-1432q0 -12 -12 -12h-17q-12 0 -12 12v506q-61 -66 -150 -107t-198 -41q-102 0 -190.5 37.5t-155.5 106.5t-105.5 175.5t-38.5 235.5zM143 530 q0 -122 35 -221.5t96.5 -163.5t142.5 -98.5t175 -34.5q103 0 195 44t153 120v709q-61 76 -153 120t-195 44q-193 0 -321 -139t-128 -380z" />
<glyph unicode="r" horiz-adv-x="716" d="M164 12v1037q0 12 11 12h18q12 0 12 -12v-197q57 104 158 168.5t219 64.5q52 0 100 -12q14 -4 11 -17l-3 -16q-2 -10 -15 -5q-43 14 -89 14q-242 0 -381 -256v-781q0 -12 -12 -12h-18q-11 0 -11 12z" />
<glyph unicode="s" horiz-adv-x="894" d="M103 58l3 21q1 13 15 6q136 -73 289 -73q162 0 252 66t90 178q0 99 -76.5 167t-243.5 109q-162 40 -242.5 112t-80.5 185q0 117 95.5 186.5t246.5 69.5q137 0 266 -53q10 -4 8 -16l-2 -16q-2 -12 -12 -8q-118 57 -260 57q-136 0 -218.5 -60t-82.5 -160q0 -94 72 -157.5 t233 -104.5q184 -48 261 -124.5t77 -186.5q0 -135 -105.5 -208t-275.5 -73q-72 0 -155.5 18.5t-147.5 52.5q-7 4 -6 12z" />
<glyph unicode="t" horiz-adv-x="704" d="M41 1036v13q0 12 11 12h202v305q0 12 12 12h17q12 0 12 -12v-305h346q12 0 12 -12v-13q0 -12 -12 -12h-346v-705q0 -160 53 -233.5t180 -73.5q45 0 98 11q9 2 11 -8l4 -18q2 -9 -8 -11q-55 -11 -105 -11q-143 0 -208.5 81t-65.5 259v709h-202q-11 0 -11 12z" />
<glyph unicode="u" horiz-adv-x="1144" d="M154 436v613q0 12 12 12h17q12 0 12 -12v-609q0 -205 102 -316.5t281 -111.5q102 0 199 45.5t163 124.5v867q0 12 12 12h17q12 0 12 -12v-1037q0 -12 -12 -12h-17q-12 0 -12 12v117q-154 -154 -362 -154q-195 0 -309.5 120t-114.5 341z" />
<glyph unicode="v" horiz-adv-x="1015" d="M54 1046q-6 15 9 15h21q9 0 12 -8l409 -1014l408 1014q3 8 13 8h20q15 0 9 -15l-419 -1036q-4 -10 -15 -10h-33q-10 0 -14 10z" />
<glyph unicode="w" horiz-adv-x="1556" d="M54 1046q-6 15 9 15h23q9 0 12 -8l334 -1014l313 1014q3 8 13 8h37q9 0 12 -8l313 -1014l334 1014q3 8 12 8h23q15 0 9 -15l-348 -1036q-4 -10 -14 -10h-31q-10 0 -14 10l-315 1012l-314 -1012q-4 -10 -15 -10h-30q-11 0 -15 10z" />
<glyph unicode="x" horiz-adv-x="999" d="M43.5 7q0.5 3 3.5 7l422 529l-401 504q-10 14 4 14h25q9 0 14 -6l384 -482l384 482q5 6 13 6h26q14 0 4 -14l-403 -504l423 -529q10 -14 -4 -14h-28q-8 0 -13 6l-402 505l-403 -505q-4 -6 -13 -6h-28q-4 0 -6 2t-1.5 5z" />
<glyph unicode="y" horiz-adv-x="1034" d="M54 1047q-5 14 9 14h21q8 0 12 -7l429 -1003l407 1003q3 7 11 7h22q15 0 9 -15l-580 -1431q-4 -10 -13 -10h-21q-15 0 -9 15l154 381z" />
<glyph unicode="z" horiz-adv-x="944" d="M72 12v15q0 11 6 18l723 979h-688q-11 0 -11 12v13q0 12 11 12h727q4 0 8 -3.5t4 -8.5v-15q0 -10 -6 -18l-725 -979h739q12 0 12 -12v-13q0 -12 -12 -12h-776q-4 0 -8 4t-4 8z" />
<glyph unicode="{" horiz-adv-x="727" d="M184 627v16q0 10 11 13q77 24 121 69.5t44 126.5v457q0 113 61.5 170t168.5 57h63q13 0 13 -12v-13q0 -12 -13 -12h-63q-95 0 -142 -50t-47 -136v-461q0 -162 -157 -217q157 -53 157 -217v-463q0 -84 47.5 -134t141.5 -50h63q13 0 13 -13v-12q0 -12 -13 -12h-63 q-107 0 -168.5 56.5t-61.5 168.5v459q0 146 -165 195q-11 3 -11 14z" />
<glyph unicode="|" horiz-adv-x="532" d="M246 -397v1960q0 5 4 8.5t8 3.5h16q5 0 9 -4t4 -8v-1960q0 -5 -4.5 -9t-8.5 -4h-16q-4 0 -8 4t-4 9z" />
<glyph unicode="}" horiz-adv-x="727" d="M61 -242q0 13 13 13h63q94 0 141.5 50t47.5 134v463q0 164 157 217q-157 55 -157 217v461q0 86 -47 136t-142 50h-63q-13 0 -13 12v13q0 12 13 12h63q107 0 168.5 -57t61.5 -170v-457q0 -81 44 -126.5t121 -69.5q11 -3 11 -13v-16q0 -11 -11 -14q-165 -49 -165 -195v-459 q0 -112 -61.5 -168.5t-168.5 -56.5h-63q-13 0 -13 12v12z" />
<glyph unicode="~" d="M143 549q3 137 72.5 206.5t175.5 69.5q72 0 131.5 -31t128.5 -104q63 -66 114.5 -93.5t115.5 -27.5q87 0 142.5 62.5t57.5 177.5q0 4 4 8t9 4h16q4 0 8 -3.5t4 -8.5q-3 -138 -72.5 -207.5t-175.5 -69.5q-72 0 -131 32.5t-128 104.5q-61 65 -112.5 92t-115.5 27 q-89 0 -144.5 -62t-58.5 -177q0 -5 -4 -8.5t-8 -3.5h-16q-5 0 -9 4t-4 8z" />
<glyph unicode="&#xa1;" horiz-adv-x="450" d="M195 999q0 55 5.5 70.5t24.5 15.5t25 -15.5t6 -70.5t-6 -70.5t-25 -15.5t-24.5 15.5t-5.5 70.5zM205 -360v1062q0 13 12 13h16q13 0 13 -13v-1062q0 -13 -13 -13h-16q-12 0 -12 13z" />
<glyph unicode="&#xa2;" horiz-adv-x="993" d="M102 530q0 233 132 383.5t333 168.5v167q0 13 13 13h16q12 0 12 -13v-164h6q167 0 277 -50q9 -5 9 -11l-2 -20q-2 -12 -12 -7q-117 52 -272 52h-6v-1037h17q155 0 268 60q15 7 16 -6l1 -15q3 -11 -10 -17q-106 -59 -275 -59h-17v-163q0 -13 -12 -13h-16q-13 0 -13 13v166 q-208 19 -336.5 168t-128.5 384zM143 530q0 -219 118 -357t306 -158v1032q-185 -18 -304.5 -157t-119.5 -360z" />
<glyph unicode="&#xa3;" horiz-adv-x="1157" d="M102 12v19q0 6 4 10q88 84 124 196t36 267v225h-151q-13 0 -13 12v13q0 12 13 12h151v283q0 409 407 409q165 0 297 -62q10 -5 9 -17l-2 -15q-2 -11 -15 -5q-125 62 -289 62q-183 0 -274.5 -89t-91.5 -285v-281h469q12 0 12 -12v-13q0 -12 -12 -12h-469v-223 q0 -154 -34.5 -269.5t-118.5 -199.5h910q11 0 11 -12v-13q0 -12 -11 -12h-949q-13 0 -13 12z" />
<glyph unicode="&#xa4;" horiz-adv-x="1384" d="M189 195q-7 7 1 16l169 169q-113 126 -113 298q0 174 114 299l-170 170q-8 9 -1 16l15 16q7 7 15 -1l171 -171q127 117 301 117q171 0 300 -116l170 170q9 8 16 1l14 -16q7 -7 -1 -16l-169 -169q116 -129 116 -300q0 -172 -116 -299l169 -168q8 -9 1 -16l-14 -16 q-7 -7 -16 1l-169 169q-128 -117 -301 -117q-176 0 -302 118l-170 -170q-8 -8 -15 -1zM287 680q0 -168 118 -287t285 -119t286.5 119.5t119.5 286.5t-119 285t-287 118q-167 0 -285 -118t-118 -285z" />
<glyph unicode="&#xa5;" horiz-adv-x="1146" d="M65 1429q2 5 9 5h24q10 0 13 -7l458 -774l459 774q4 7 12 7h25q7 0 8.5 -5t-1.5 -10l-464 -776h408q12 0 12 -12v-13q0 -12 -12 -12h-426v-186h426q12 0 12 -12v-13q0 -12 -12 -12h-426v-371q0 -12 -12 -12h-17q-12 0 -12 12v371h-422q-12 0 -12 12v13q0 12 12 12h422 v186h-422q-12 0 -12 12v13q0 12 12 12h403l-463 776q-4 5 -2 10z" />
<glyph unicode="&#xa6;" horiz-adv-x="532" d="M246 -193v631q0 13 12 13h16q13 0 13 -13v-631q0 -12 -13 -12h-16q-12 0 -12 12zM246 766v631q0 12 12 12h16q13 0 13 -12v-631q0 -12 -13 -12h-16q-12 0 -12 12z" />
<glyph unicode="&#xa7;" horiz-adv-x="1013" d="M165 -125l3 22q1 13 15 6q133 -71 286 -71q161 0 250.5 64t89.5 180q0 96 -67 163t-230 109q-163 43 -252.5 115t-89.5 186q0 107 72 178t202 101q-274 86 -274 274q0 119 97 187.5t243 68.5q137 0 262 -52q11 -5 10 -18l-2 -14q-1 -13 -16 -7q-115 54 -256 54 q-136 0 -216.5 -60t-80.5 -159q0 -88 72 -150.5t225 -103.5q165 -44 253.5 -115.5t88.5 -185.5q0 -107 -72.5 -177.5t-202.5 -100.5q275 -87 275 -293q0 -136 -104 -208.5t-275 -72.5q-156 0 -297 67q-10 5 -9 13zM211 649q0 -182 305 -262q293 54 293 260q0 182 -305 262 q-293 -54 -293 -260z" />
<glyph unicode="&#xa8;" horiz-adv-x="790" d="M158 1329q0 55 5.5 70.5t24.5 15.5t25 -15.5t6 -70.5t-6 -70.5t-25 -15.5t-24.5 15.5t-5.5 70.5zM571 1329q0 55 6 70.5t25 15.5t25 -15.5t6 -70.5t-6 -70.5t-25 -15.5t-25 15.5t-6 70.5z" />
<glyph unicode="&#xa9;" horiz-adv-x="1708" d="M123 717q0 151 58.5 288.5t157 236.5t233.5 157.5t282 58.5t282 -58.5t233.5 -157.5t157 -236.5t58.5 -288.5t-58.5 -288.5t-157 -236.5t-233.5 -158t-282 -59t-282 59t-233.5 158t-157 236.5t-58.5 288.5zM164 717q0 -142 55.5 -271.5t148.5 -223.5t220.5 -150 t265.5 -56t265.5 56t220.5 150t148.5 223.5t55.5 271.5t-55.5 271.5t-148.5 223.5t-220.5 149.5t-265.5 55.5q-139 0 -266.5 -55.5t-220.5 -149.5t-148 -223.5t-55 -271.5zM436 713q0 198 125.5 321t312.5 123q139 0 239 -43q9 -4 8 -12l-2 -21q-2 -9 -14 -4 q-100 43 -231 43q-181 0 -289 -113.5t-108 -293.5t108.5 -294t288.5 -114q134 0 231 43q13 6 14 -7l2 -18q1 -8 -8 -12q-99 -43 -239 -43q-187 0 -312.5 123.5t-125.5 321.5z" />
<glyph unicode="&#xaa;" horiz-adv-x="880" d="M125 900q0 120 91.5 181.5t256.5 61.5h201v31q0 127 -54 183t-188 56q-131 0 -226 -42q-10 -4 -12 6l-3 20q0 7 9 12q98 41 232 41q153 0 218 -64.5t65 -211.5v-481q0 -11 -13 -11h-16q-12 0 -12 11v109q-47 -68 -124.5 -102t-162.5 -34q-116 0 -189 60.5t-73 173.5z M166 900q0 -95 59.5 -146.5t159.5 -51.5q197 0 289 154v250h-203q-148 0 -226.5 -52t-78.5 -154z" />
<glyph unicode="&#xab;" horiz-adv-x="1110" d="M164 631v16q0 10 9 17l391 364q3 3 7 4t6.5 -2t2.5 -8v-14q0 -9 -9 -16l-383 -353l383 -353q9 -7 9 -16v-14q0 -8 -5.5 -9.5t-10.5 3.5l-391 364q-9 7 -9 17zM551 631v16q0 10 9 17l391 364q3 3 7 4t6.5 -2t2.5 -8v-14q0 -9 -9 -16l-383 -353l383 -353q9 -7 9 -16v-14 q0 -8 -5.5 -9.5t-10.5 3.5l-391 364q-9 7 -9 17z" />
<glyph unicode="&#xac;" d="M133 863v14q0 12 12 12h955q12 0 12 -12v-531q0 -12 -12 -12h-17q-12 0 -12 12v506h-926q-12 0 -12 11z" />
<glyph unicode="&#xad;" horiz-adv-x="831" d="M143 673v13q0 5 4 8.5t9 3.5h520q12 0 12 -12v-13q0 -11 -12 -11h-520q-13 0 -13 11z" />
<glyph unicode="&#xae;" horiz-adv-x="1708" d="M123 717q0 151 58.5 288.5t157 236.5t233.5 157.5t282 58.5t282 -58.5t233.5 -157.5t157 -236.5t58.5 -288.5t-58.5 -288.5t-157 -236.5t-233.5 -158t-282 -59t-282 59t-233.5 158t-157 236.5t-58.5 288.5zM164 717q0 -142 55.5 -271.5t148.5 -223.5t220.5 -150 t265.5 -56t265.5 56t220.5 150t148.5 223.5t55.5 271.5t-55.5 271.5t-148.5 223.5t-220.5 149.5t-265.5 55.5q-139 0 -266.5 -55.5t-220.5 -149.5t-148 -223.5t-55 -271.5zM559 301v829q0 13 12 13h281q154 0 239 -65t85 -183q0 -175 -181 -231l214 -363q7 -12 -8 -12h-23 q-9 0 -13 7l-209 357q-44 -8 -104 -8h-252v-344q0 -12 -12 -12h-17q-12 0 -12 12zM600 682h249q140 0 213 54.5t73 158.5q0 211 -286 211h-249v-424z" />
<glyph unicode="&#xaf;" horiz-adv-x="790" d="M117 1321v12q0 13 12 13h534q11 0 11 -13v-12q0 -12 -11 -12h-534q-12 0 -12 12z" />
<glyph unicode="&#xb0;" horiz-adv-x="790" d="M147 1210q0 103 72.5 175.5t175.5 72.5t175.5 -72.5t72.5 -175.5t-72.5 -175t-175.5 -72t-175.5 72t-72.5 175zM188 1210q0 -89 60 -150t147 -61t147 61t60 150t-60 150t-147 61t-147 -61t-60 -150z" />
<glyph unicode="&#xb1;" d="M143 147v13q0 12 13 12h954q12 0 12 -12v-13q0 -12 -12 -12h-954q-13 0 -13 12zM143 805v13q0 11 13 11h456v435q0 12 13 12h17q11 0 11 -12v-435h457q12 0 12 -11v-13q0 -12 -12 -12h-457v-435q0 -12 -11 -12h-17q-13 0 -13 12v435h-456q-13 0 -13 12z" />
<glyph unicode="&#xb2;" horiz-adv-x="737" d="M88 498v22q0 5 6 11q215 181 381 395q60 78 82.5 139.5t22.5 124.5q0 114 -64.5 168.5t-179.5 54.5q-122 0 -211 -46q-9 -5 -11 6l-2 20q-2 10 7 14q95 43 217 43q136 0 210.5 -68.5t74.5 -191.5q0 -68 -25.5 -135t-89.5 -154q-151 -201 -361 -375h470q14 0 14 -12v-16 q0 -13 -14 -13h-515q-12 0 -12 13z" />
<glyph unicode="&#xb3;" horiz-adv-x="737" d="M91 515l2 20q1 9 13 5q85 -34 203 -34q134 0 204.5 61t70.5 150q0 49 -17 89.5t-56 76.5t-113 57t-177 23q-12 0 -12 12v13q0 11 12 11q93 1 163 21.5t109 54t57.5 70t18.5 74.5q0 95 -67.5 144.5t-182.5 49.5q-120 0 -195 -37q-13 -6 -14 7l-2 17q-1 9 8 13 q93 37 201 37q137 0 215 -58.5t78 -172.5q0 -90 -63 -153.5t-189 -82.5q139 -29 203 -94t64 -172q0 -111 -84.5 -179.5t-231.5 -68.5q-117 0 -208 33q-12 4 -10 13z" />
<glyph unicode="&#xb4;" horiz-adv-x="790" d="M266 1174l257 313q7 8 19 8h27q12 0 4 -10l-259 -314q-7 -8 -18 -8h-26q-11 0 -4 11z" />
<glyph unicode="&#xb5;" horiz-adv-x="1155" d="M164 -383v1432q0 12 12 12h17q12 0 12 -12v-869q68 -79 166.5 -123.5t207.5 -44.5q107 0 205 44.5t166 123.5v869q0 12 13 12h16q12 0 12 -12v-1037q0 -12 -12 -12h-16q-13 0 -13 12v121q-152 -158 -371 -158q-224 0 -374 158v-516q0 -12 -12 -12h-17q-12 0 -12 12z" />
<glyph unicode="&#xb6;" horiz-adv-x="1105" d="M102 1074q0 95 38.5 166t106.5 112.5t152 61.5t184 20h307q11 0 11 -13v-1677q0 -12 -11 -12h-18q-12 0 -12 12v1653h-135v-1653q0 -12 -11 -12h-18q-12 0 -12 12v965h-101q-100 0 -184.5 20.5t-152 63t-106 114.5t-38.5 167z" />
<glyph unicode="&#xb7;" horiz-adv-x="573" d="M256 680q0 55 6 70.5t25 15.5t24.5 -15.5t5.5 -70.5t-5.5 -70.5t-24.5 -15.5t-25 15.5t-6 70.5z" />
<glyph unicode="&#xb8;" horiz-adv-x="790" d="M227 -450q0 8 5.5 11t11.5 1q41 -13 78 -13q90 0 135 35.5t45 97.5q0 58 -50.5 99.5t-144.5 51.5q-6 1 -8 6.5t1 10.5l88 152q3 5 11 5h13q8 0 11 -5t-1 -12l-76 -131q97 -18 147 -65t50 -112q0 -77 -56 -123t-163 -46q-48 0 -87 11q-10 2 -10 12v14z" />
<glyph unicode="&#xb9;" horiz-adv-x="737" d="M157 1260q-5 8 4 15l201 152q12 9 26 9h14q13 0 13 -13v-925q0 -13 -13 -13h-17q-11 0 -11 13v891l-191 -146q-11 -7 -17 2z" />
<glyph unicode="&#xba;" horiz-adv-x="880" d="M98 1059q0 168 96 279.5t246 111.5t246 -111.5t96 -279.5t-96 -279.5t-246 -111.5t-246 111.5t-96 279.5zM139 1059q0 -161 86.5 -257.5t214.5 -96.5t214.5 96.5t86.5 257.5t-86.5 257.5t-214.5 96.5t-214.5 -96.5t-86.5 -257.5z" />
<glyph unicode="&#xbb;" horiz-adv-x="1110" d="M143 256v14q0 8 9 16l383 353l-383 353q-9 7 -9 16v14q0 8 5.5 9.5t10.5 -3.5l391 -364q9 -7 9 -17v-16q0 -10 -9 -17l-391 -364q-3 -3 -7 -4t-6.5 2t-2.5 8zM530 256v14q0 8 9 16l383 353l-383 353q-9 7 -9 16v14q0 8 5.5 9.5t10.5 -3.5l391 -364q9 -7 9 -17v-16 q0 -10 -9 -17l-391 -364q-3 -3 -7 -4t-6.5 2t-2.5 8z" />
<glyph unicode="&#xbc;" horiz-adv-x="1843" d="M154 1260q-5 8 4 15l201 152q12 9 26 9h14q13 0 13 -13v-925q0 -13 -13 -13h-17q-11 0 -11 13v891l-191 -146q-11 -7 -17 2zM441 -16l792 1474q3 6 10 6h22q15 0 8 -14l-791 -1475q-3 -6 -10 -6h-22q-16 0 -9 15zM1093 236v16q0 9 5 15l480 675q4 6 11 6h25q11 0 11 -12 v-676h102q13 0 13 -12v-12q0 -13 -13 -13h-102v-211q0 -12 -11 -12h-18q-12 0 -12 12v211h-479q-12 0 -12 13zM1140 260h444v625z" />
<glyph unicode="&#xbd;" horiz-adv-x="1843" d="M154 1260q-5 8 4 15l201 152q12 9 26 9h14q13 0 13 -13v-925q0 -13 -13 -13h-17q-11 0 -11 13v891l-191 -146q-11 -7 -17 2zM396 -16l792 1474q3 6 10 6h22q15 0 8 -14l-791 -1475q-3 -6 -10 -6h-23q-16 0 -8 15zM1177 12v23q0 5 6 11q217 183 381 394q60 78 82 139.5 t22 125.5q0 114 -64.5 168.5t-179.5 54.5q-122 0 -211 -46q-9 -5 -11 6l-2 19q-2 11 7 15q95 43 217 43q136 0 210.5 -68.5t74.5 -191.5q0 -68 -25.5 -135t-89.5 -154q-152 -203 -360 -375h470q13 0 13 -12v-17q0 -12 -13 -12h-515q-12 0 -12 12z" />
<glyph unicode="&#xbe;" horiz-adv-x="1843" d="M91 515l2 20q1 9 13 5q85 -34 203 -34q134 0 204.5 61t70.5 150q0 49 -17 89.5t-56 76.5t-113 57t-177 23q-12 0 -12 12v13q0 11 12 11q93 1 163 21.5t109 54t57.5 70t18.5 74.5q0 95 -67.5 144.5t-182.5 49.5q-120 0 -195 -37q-13 -6 -14 7l-2 17q-1 9 8 13 q93 37 201 37q137 0 215 -58.5t78 -172.5q0 -90 -63 -153.5t-189 -82.5q139 -29 203 -94t64 -172q0 -111 -84.5 -179.5t-231.5 -68.5q-117 0 -208 33q-12 4 -10 13zM531.5 -26.5q-2.5 4.5 0.5 10.5l792 1474q3 6 10 6h22q15 0 8 -14l-791 -1475q-3 -6 -10 -6h-22 q-7 0 -9.5 4.5zM1096 236v16q0 9 5 15l480 675q4 6 11 6h25q11 0 11 -12v-676h103q12 0 12 -12v-12q0 -13 -12 -13h-103v-211q0 -12 -11 -12h-18q-12 0 -12 12v211h-479q-12 0 -12 13zM1143 260h444v625z" />
<glyph unicode="&#xbf;" horiz-adv-x="1044" d="M164 -76q0 106 63 200.5t193 186.5q103 73 136.5 151t33.5 210v30q0 5 4 9t8 4h16q4 0 8.5 -4.5t4.5 -8.5v-38q0 -151 -41.5 -232.5t-143.5 -152.5q-126 -88 -182.5 -173.5t-56.5 -185.5q0 -135 102 -207.5t297 -72.5q158 0 298 67q13 7 15 -4l2 -25q0 -8 -9 -12 q-140 -63 -306 -63q-206 0 -324 82.5t-118 238.5zM580 999q0 54 6 70t24 16t24.5 -16.5t6.5 -69.5q0 -52 -6.5 -69t-24.5 -17t-24 16.5t-6 69.5z" />
<glyph unicode="&#xc0;" d="M33 10l571 1413q4 11 12 11h29q8 0 12 -11l572 -1413q3 -10 -6 -10h-27q-9 0 -12 10l-169 422h-768l-169 -422q-3 -10 -12 -10h-27q-9 0 -6 10zM262 469h737l-368 920zM388 1889q2 3 7 3h26q11 0 18 -8l257 -313q3 -5 1 -7.5t-7 -2.5h-23q-12 0 -19 8l-259 313q-3 4 -1 7 z" />
<glyph unicode="&#xc1;" d="M33 10l571 1413q4 11 12 11h29q8 0 12 -11l572 -1413q3 -10 -6 -10h-27q-9 0 -12 10l-169 422h-768l-169 -422q-3 -10 -12 -10h-27q-9 0 -6 10zM262 469h737l-368 920zM561 1571l257 313q7 8 19 8h27q12 0 4 -10l-259 -313q-7 -8 -18 -8h-26q-11 0 -4 10z" />
<glyph unicode="&#xc2;" d="M33 10l571 1413q4 11 12 11h29q8 0 12 -11l572 -1413q3 -10 -6 -10h-27q-9 0 -12 10l-169 422h-768l-169 -422q-3 -10 -12 -10h-27q-9 0 -6 10zM262 469h737l-368 920zM323.5 1566q-1.5 5 3.5 10l268 308q6 8 15 8h33q9 0 15 -8l269 -308q3 -3 4 -6.5t-2 -6t-8 -2.5h-22 q-8 0 -15 8l-257 297l-257 -297q-7 -8 -16 -8h-21q-8 0 -9.5 5z" />
<glyph unicode="&#xc3;" d="M33 10l571 1413q4 11 12 11h29q8 0 12 -11l572 -1413q3 -10 -6 -10h-27q-9 0 -12 10l-169 422h-768l-169 -422q-3 -10 -12 -10h-27q-9 0 -6 10zM262 469h737l-368 920zM322 1604q3 133 45.5 195.5t113.5 62.5q29 0 53 -10t47 -33.5t34 -37.5t34 -47q19 -28 30 -42 t29 -32.5t36.5 -27t39.5 -8.5q51 0 83.5 53t35.5 168q0 13 12 13h17q12 0 12 -13q-4 -133 -46.5 -195.5t-113.5 -62.5q-28 0 -52 9.5t-46.5 32.5t-34.5 38t-35 48q-26 37 -41.5 56t-41 36.5t-52.5 17.5q-51 0 -83.5 -52.5t-35.5 -168.5q0 -13 -12 -13h-17q-11 0 -11 13z" />
<glyph unicode="&#xc4;" d="M33 10l571 1413q4 11 12 11h29q8 0 12 -11l572 -1413q3 -10 -6 -10h-27q-9 0 -12 10l-169 422h-768l-169 -422q-3 -10 -12 -10h-27q-9 0 -6 10zM262 469h737l-368 920zM395 1726q0 55 6 70.5t25 15.5t25 -15.5t6 -70.5t-6 -70.5t-25 -15.5t-25 15.5t-6 70.5zM809 1726 q0 55 6 70.5t25 15.5t24.5 -15.5t5.5 -70.5t-5.5 -70.5t-24.5 -15.5t-25 15.5t-6 70.5z" />
<glyph unicode="&#xc5;" d="M33 10l571 1413q4 11 12 11h29q8 0 12 -11l572 -1413q3 -10 -6 -10h-27q-9 0 -12 10l-169 422h-768l-169 -422q-3 -10 -12 -10h-27q-9 0 -6 10zM262 469h737l-368 920zM430 1726q0 86 58.5 144.5t144.5 58.5t144.5 -58.5t58.5 -144.5t-58.5 -144t-144.5 -58t-144.5 58 t-58.5 144zM467 1726q0 -69 48.5 -117t117.5 -48t117.5 48t48.5 117t-48.5 117.5t-117.5 48.5t-117.5 -48.5t-48.5 -117.5z" />
<glyph unicode="&#xc6;" horiz-adv-x="1708" d="M34.5 4q-2.5 4 1.5 10l811 1412q5 8 12 8h723q12 0 12 -13v-13q0 -11 -12 -11h-668v-637h617q12 0 12 -12v-13q0 -12 -12 -12h-617v-686h687q12 0 12 -11v-14q0 -12 -12 -12h-715q-13 0 -13 12v418h-548l-242 -423q-4 -7 -12 -7h-28q-6 0 -8.5 4zM345 467h528v924z" />
<glyph unicode="&#xc7;" horiz-adv-x="1210" d="M113 717q0 336 193 538.5t517 202.5q157 0 269 -41q10 -4 9 -14l-2 -17q-2 -12 -15 -7q-107 42 -259 42q-310 0 -488.5 -191t-178.5 -513t178.5 -513.5t488.5 -191.5q162 0 266 44q12 5 14 -7l2 -16q1 -11 -9 -15q-114 -43 -275 -43h-24l-66 -116q97 -18 147 -65t50 -112 q0 -77 -56 -123t-163 -46q-48 0 -87 11q-10 2 -10 12v14q0 8 5.5 11t11.5 1q41 -13 78 -13q90 0 135 35.5t45 97.5q0 58 -50.5 99.5t-144.5 51.5q-6 1 -8 6.5t1 10.5l73 127q-300 20 -473.5 220t-173.5 520z" />
<glyph unicode="&#xc8;" horiz-adv-x="1124" d="M184 12v1409q0 5 4 9t9 4h803q5 0 9.5 -4t4.5 -9v-12q0 -12 -14 -12h-775v-637h726q12 0 12 -12v-13q0 -12 -12 -12h-726v-686h795q12 0 12 -12v-13q0 -12 -12 -12h-823q-5 0 -9 4t-4 8zM366 1889q2 3 7 3h25q12 0 19 -8l257 -313q3 -5 1 -7.5t-7 -2.5h-24q-11 0 -18 8 l-259 313q-3 4 -1 7z" />
<glyph unicode="&#xc9;" horiz-adv-x="1124" d="M184 12v1409q0 5 4 9t9 4h803q5 0 9.5 -4t4.5 -9v-12q0 -12 -14 -12h-775v-637h726q12 0 12 -12v-13q0 -12 -12 -12h-726v-686h795q12 0 12 -12v-13q0 -12 -12 -12h-823q-5 0 -9 4t-4 8zM514 1571l257 313q7 8 19 8h27q12 0 4 -10l-259 -313q-7 -8 -18 -8h-26 q-11 0 -4 10z" />
<glyph unicode="&#xca;" horiz-adv-x="1124" d="M184 12v1409q0 5 4 9t9 4h803q5 0 9.5 -4t4.5 -9v-12q0 -12 -14 -12h-775v-637h726q12 0 12 -12v-13q0 -12 -12 -12h-726v-686h795q12 0 12 -12v-13q0 -12 -12 -12h-823q-5 0 -9 4t-4 8zM290.5 1566q-1.5 5 3.5 10l268 308q6 8 16 8h32q10 0 16 -8l268 -308q3 -3 4 -6.5 t-2 -6t-8 -2.5h-22q-8 0 -15 8l-257 297l-257 -297q-7 -8 -15 -8h-22q-8 0 -9.5 5z" />
<glyph unicode="&#xcb;" horiz-adv-x="1124" d="M184 12v1409q0 5 4 9t9 4h803q5 0 9.5 -4t4.5 -9v-12q0 -12 -14 -12h-775v-637h726q12 0 12 -12v-13q0 -12 -12 -12h-726v-686h795q12 0 12 -12v-13q0 -12 -12 -12h-823q-5 0 -9 4t-4 8zM365 1726q0 55 5.5 70.5t24.5 15.5t25 -15.5t6 -70.5t-6 -70.5t-25 -15.5 t-24.5 15.5t-5.5 70.5zM778 1726q0 55 6 70.5t25 15.5t25 -15.5t6 -70.5t-6 -70.5t-25 -15.5t-25 15.5t-6 70.5z" />
<glyph unicode="&#xcc;" horiz-adv-x="430" d="M-64 1889q2 3 7 3h25q12 0 19 -8l257 -313q3 -5 1 -7.5t-7 -2.5h-24q-11 0 -18 8l-259 313q-3 4 -1 7zM195 13v1407q0 14 12 14h16q5 0 9 -4.5t4 -9.5v-1407q0 -13 -13 -13h-16q-12 0 -12 13z" />
<glyph unicode="&#xcd;" horiz-adv-x="430" d="M178 1571l257 313q7 8 19 8h27q12 0 4 -10l-259 -313q-7 -8 -18 -8h-26q-11 0 -4 10zM195 13v1407q0 14 12 14h16q5 0 9 -4.5t4 -9.5v-1407q0 -13 -13 -13h-16q-12 0 -12 13z" />
<glyph unicode="&#xce;" horiz-adv-x="430" d="M-100.5 1566q-1.5 5 3.5 10l268 308q6 8 15 8h33q9 0 15 -8l269 -308q3 -3 4 -6.5t-2 -6t-8 -2.5h-22q-8 0 -15 8l-257 297l-257 -297q-7 -8 -16 -8h-21q-8 0 -9.5 5zM188 13v1407q0 5 4 9.5t9 4.5h16q12 0 12 -14v-1407q0 -13 -12 -13h-16q-13 0 -13 13z" />
<glyph unicode="&#xcf;" horiz-adv-x="430" d="M-23 1726q0 55 6 70.5t25 15.5t25 -15.5t6 -70.5t-6 -70.5t-25 -15.5t-25 15.5t-6 70.5zM195 13v1407q0 14 12 14h16q5 0 9 -4.5t4 -9.5v-1407q0 -13 -13 -13h-16q-12 0 -12 13zM391 1726q0 55 6 70.5t25 15.5t25 -15.5t6 -70.5t-6 -70.5t-25 -15.5t-25 15.5t-6 70.5z " />
<glyph unicode="&#xd0;" horiz-adv-x="1361" d="M41 709v14q0 12 12 12h142v686q0 5 4 9t8 4h246q370 0 583 -185.5t213 -531.5t-213 -531.5t-583 -185.5h-246q-5 0 -8.5 4t-3.5 8v686h-142q-12 0 -12 11zM236 37h217q171 0 308 41.5t237.5 123.5t155 213t54.5 302t-54.5 302t-155 213t-237.5 123.5t-308 41.5h-217v-662 h405q12 0 12 -12v-14q0 -11 -12 -11h-405v-661z" />
<glyph unicode="&#xd1;" horiz-adv-x="1409" d="M184 13v1408q0 13 13 13h28q8 0 15 -10l944 -1365v1361q0 14 12 14h16q5 0 9 -4t4 -10v-1407q0 -13 -13 -13h-28q-9 0 -15 9l-944 1363v-1359q0 -13 -12 -13h-16q-13 0 -13 13zM403 1604q3 133 46 195.5t114 62.5q29 0 53 -10t47 -33.5t34 -37.5t34 -47q19 -28 30 -42 t29 -32.5t36.5 -27t39.5 -8.5q51 0 83.5 53t35.5 168q0 13 12 13h17q12 0 12 -13q-4 -133 -46.5 -195.5t-113.5 -62.5q-28 0 -52 9.5t-46.5 32.5t-34.5 38t-35 48q-26 37 -41.5 56t-41 36.5t-52.5 17.5q-51 0 -83.5 -52.5t-35.5 -168.5q0 -13 -12 -13h-17q-5 0 -8.5 4 t-3.5 9z" />
<glyph unicode="&#xd2;" horiz-adv-x="1425" d="M113 717q0 212 71.5 379t209 264.5t319.5 97.5t319.5 -97.5t209 -264.5t71.5 -379q0 -158 -42 -294t-118 -235.5t-189.5 -156t-250.5 -56.5t-250.5 56.5t-189.5 156t-118 235.5t-42 294zM154 717q0 -201 66 -360t194 -252t299 -93q172 0 300 93t193.5 251.5t65.5 360.5 t-65.5 360.5t-193.5 251t-300 92.5q-171 0 -299 -92.5t-194 -251.5t-66 -360zM476 1889q2 3 7 3h26q11 0 18 -8l257 -313q3 -5 1 -7.5t-7 -2.5h-23q-12 0 -19 8l-259 313q-3 4 -1 7z" />
<glyph unicode="&#xd3;" horiz-adv-x="1425" d="M113 717q0 212 71.5 379t209 264.5t319.5 97.5t319.5 -97.5t209 -264.5t71.5 -379q0 -158 -42 -294t-118 -235.5t-189.5 -156t-250.5 -56.5t-250.5 56.5t-189.5 156t-118 235.5t-42 294zM154 717q0 -201 66 -360t194 -252t299 -93q172 0 300 93t193.5 251.5t65.5 360.5 t-65.5 360.5t-193.5 251t-300 92.5q-171 0 -299 -92.5t-194 -251.5t-66 -360zM639 1571l257 313q7 8 18 8h28q12 0 4 -10l-259 -313q-7 -8 -18 -8h-26q-11 0 -4 10z" />
<glyph unicode="&#xd4;" horiz-adv-x="1425" d="M113 717q0 212 71.5 379t209 264.5t319.5 97.5t319.5 -97.5t209 -264.5t71.5 -379q0 -158 -42 -294t-118 -235.5t-189.5 -156t-250.5 -56.5t-250.5 56.5t-189.5 156t-118 235.5t-42 294zM154 717q0 -201 66 -360t194 -252t299 -93q172 0 300 93t193.5 251.5t65.5 360.5 t-65.5 360.5t-193.5 251t-300 92.5q-171 0 -299 -92.5t-194 -251.5t-66 -360zM403.5 1566q-1.5 5 3.5 10l268 308q6 8 15 8h33q9 0 15 -8l269 -308q5 -5 3 -10t-10 -5h-21q-8 0 -15 8l-257 297l-257 -297q-7 -8 -16 -8h-21q-8 0 -9.5 5z" />
<glyph unicode="&#xd5;" horiz-adv-x="1425" d="M113 717q0 212 71.5 379t209 264.5t319.5 97.5t319.5 -97.5t209 -264.5t71.5 -379q0 -158 -42 -294t-118 -235.5t-189.5 -156t-250.5 -56.5t-250.5 56.5t-189.5 156t-118 235.5t-42 294zM154 717q0 -201 66 -360t194 -252t299 -93q172 0 300 93t193.5 251.5t65.5 360.5 t-65.5 360.5t-193.5 251t-300 92.5q-171 0 -299 -92.5t-194 -251.5t-66 -360zM401 1604q3 133 46 195.5t114 62.5q29 0 53 -10t47 -33.5t34 -37.5t34 -47q19 -28 30 -42t29 -32.5t36.5 -27t39.5 -8.5q51 0 83.5 53t35.5 168q0 13 12 13h17q12 0 12 -13q-4 -133 -46.5 -195.5 t-113.5 -62.5q-28 0 -52 9.5t-46.5 32.5t-34.5 38t-35 48q-26 37 -41.5 56t-41 36.5t-52.5 17.5q-51 0 -83.5 -52.5t-35.5 -168.5q0 -13 -12 -13h-17q-5 0 -8.5 4t-3.5 9z" />
<glyph unicode="&#xd6;" horiz-adv-x="1425" d="M113 717q0 212 71.5 379t209 264.5t319.5 97.5t319.5 -97.5t209 -264.5t71.5 -379q0 -158 -42 -294t-118 -235.5t-189.5 -156t-250.5 -56.5t-250.5 56.5t-189.5 156t-118 235.5t-42 294zM154 717q0 -201 66 -360t194 -252t299 -93q172 0 300 93t193.5 251.5t65.5 360.5 t-65.5 360.5t-193.5 251t-300 92.5q-171 0 -299 -92.5t-194 -251.5t-66 -360zM475 1726q0 55 6 70.5t25 15.5t25 -15.5t6 -70.5t-6 -70.5t-25 -15.5t-25 15.5t-6 70.5zM889 1726q0 55 6 70.5t25 15.5t24.5 -15.5t5.5 -70.5t-5.5 -70.5t-24.5 -15.5t-25 15.5t-6 70.5z" />
<glyph unicode="&#xd7;" d="M247 1037q0 6 3 9l11 11q3 3 9 3t9 -3l350 -346l349 346q8 8 17 0l14 -14q6 -8 -2 -16l-350 -345l351 -344q8 -8 0 -17l-12 -12q-8 -8 -17 0l-350 344l-349 -344q-10 -8 -17 -1l-13 13q-8 9 0 17l350 344l-350 346q-3 3 -3 9z" />
<glyph unicode="&#xd8;" horiz-adv-x="1425" d="M113 717q0 212 71.5 379t209 264.5t319.5 97.5q194 0 336 -109l161 283q3 6 11 6h22q15 0 8 -14l-171 -301q111 -99 172 -257t61 -349q0 -158 -42 -294t-118 -235.5t-189.5 -156t-250.5 -56.5q-194 0 -337 110l-161 -284q-3 -6 -10 -6h-23q-16 0 -8 15l171 301 q-112 99 -172 256t-60 350zM154 717q0 -181 54.5 -330t156.5 -243l665 1172q-135 105 -317 105q-171 0 -299 -92.5t-194 -251.5t-66 -360zM395 118q134 -106 318 -106q172 0 300 93t193.5 251.5t65.5 360.5q0 181 -54.5 329.5t-156.5 242.5z" />
<glyph unicode="&#xd9;" horiz-adv-x="1425" d="M184 545v876q0 13 13 13h16q12 0 12 -13v-870q0 -137 37.5 -242t105 -169t154.5 -96t191 -32t191 32t154 96t104.5 169t37.5 242v870q0 13 12 13h17q12 0 12 -13v-876q0 -143 -40.5 -254t-113 -179t-167 -102.5t-207.5 -34.5q-112 0 -206.5 34.5t-167.5 102.5t-114 179 t-41 254zM433 1889q2 3 7 3h26q11 0 18 -8l257 -313q3 -5 1 -7.5t-7 -2.5h-23q-12 0 -19 8l-259 313q-3 4 -1 7z" />
<glyph unicode="&#xda;" horiz-adv-x="1425" d="M184 545v876q0 13 13 13h16q12 0 12 -13v-870q0 -137 37.5 -242t105 -169t154.5 -96t191 -32t191 32t154 96t104.5 169t37.5 242v870q0 13 12 13h17q12 0 12 -13v-876q0 -143 -40.5 -254t-113 -179t-167 -102.5t-207.5 -34.5q-112 0 -206.5 34.5t-167.5 102.5t-114 179 t-41 254zM670 1571l257 313q7 8 18 8h28q12 0 4 -10l-259 -313q-7 -8 -19 -8h-25q-11 0 -4 10z" />
<glyph unicode="&#xdb;" horiz-adv-x="1425" d="M184 545v876q0 13 13 13h16q12 0 12 -13v-870q0 -137 37.5 -242t105 -169t154.5 -96t191 -32t191 32t154 96t104.5 169t37.5 242v870q0 13 12 13h17q12 0 12 -13v-876q0 -143 -40.5 -254t-113 -179t-167 -102.5t-207.5 -34.5q-112 0 -206.5 34.5t-167.5 102.5t-114 179 t-41 254zM403.5 1566q-1.5 5 3.5 10l268 308q6 8 15 8h33q9 0 15 -8l269 -308q5 -5 3 -10t-10 -5h-21q-8 0 -15 8l-257 297l-257 -297q-7 -8 -16 -8h-21q-8 0 -9.5 5z" />
<glyph unicode="&#xdc;" horiz-adv-x="1425" d="M184 545v876q0 13 13 13h16q12 0 12 -13v-870q0 -137 37.5 -242t105 -169t154.5 -96t191 -32t191 32t154 96t104.5 169t37.5 242v870q0 13 12 13h17q12 0 12 -13v-876q0 -143 -40.5 -254t-113 -179t-167 -102.5t-207.5 -34.5q-112 0 -206.5 34.5t-167.5 102.5t-114 179 t-41 254zM475 1726q0 55 6 70.5t25 15.5t25 -15.5t6 -70.5t-6 -70.5t-25 -15.5t-25 15.5t-6 70.5zM889 1726q0 55 6 70.5t25 15.5t24.5 -15.5t5.5 -70.5t-5.5 -70.5t-24.5 -15.5t-25 15.5t-6 70.5z" />
<glyph unicode="&#xdd;" horiz-adv-x="1290" d="M65 1429q2 5 9 5h24q10 0 13 -7l530 -815l530 815q3 7 13 7h24q7 0 9 -5t-2 -10l-553 -848v-559q0 -12 -13 -12h-16q-12 0 -12 12v559l-554 848q-4 5 -2 10zM586 1571l257 313q7 8 18 8h28q12 0 4 -10l-259 -313q-7 -8 -19 -8h-25q-11 0 -4 10z" />
<glyph unicode="&#xde;" horiz-adv-x="1155" d="M184 12v1409q0 5 4 9t9 4h16q4 0 8 -4t4 -9v-272h303q250 0 392.5 -110t142.5 -312t-142.5 -312t-392.5 -110h-303v-293q0 -4 -3.5 -8t-8.5 -4h-16q-5 0 -9 4t-4 8zM225 342h303q232 0 363 98.5t131 286.5t-131 286.5t-363 98.5h-303v-770z" />
<glyph unicode="&#xdf;" horiz-adv-x="1085" d="M164 12v957q0 242 100.5 365.5t296.5 123.5q159 0 264 -99.5t105 -262.5q0 -145 -83.5 -230.5t-223.5 -113.5q170 -33 265 -135.5t95 -274.5q0 -162 -105 -264.5t-296 -102.5q-145 0 -256 60q-12 6 -10 14l3 19q2 14 15 7q110 -63 246 -63q178 0 270 94t92 236 q0 182 -116.5 285t-338.5 106q-12 0 -12 12v13q0 12 12 12q193 2 297.5 87t104.5 239q0 149 -91.5 237t-240.5 88q-352 0 -352 -450v-959q0 -12 -12 -12h-17q-12 0 -12 12z" />
<glyph unicode="&#xe0;" horiz-adv-x="1075" d="M92 287q0 153 112.5 240t321.5 87h355v88q0 186 -91 266.5t-276 80.5q-168 0 -304 -64q-13 -6 -15 7l-2 14q-2 12 7 16q145 63 312 63q201 0 305.5 -86t104.5 -286v-701q0 -12 -11 -12h-18q-12 0 -12 12v115q-149 -152 -400 -152q-172 0 -280.5 81.5t-108.5 230.5z M133 291q0 -133 95 -206t251 -73q248 0 402 164v402h-351q-192 0 -294.5 -79t-102.5 -208zM300 1533q2 3 7 3h26q11 0 18 -8l257 -314q3 -4 1 -7t-7 -3h-23q-12 0 -19 8l-259 314q-3 4 -1 7z" />
<glyph unicode="&#xe1;" horiz-adv-x="1075" d="M92 287q0 153 112.5 240t321.5 87h355v88q0 186 -91 266.5t-276 80.5q-168 0 -304 -64q-13 -6 -15 7l-2 14q-2 12 7 16q145 63 312 63q201 0 305.5 -86t104.5 -286v-701q0 -12 -11 -12h-18q-12 0 -12 12v115q-149 -152 -400 -152q-172 0 -280.5 81.5t-108.5 230.5z M133 291q0 -133 95 -206t251 -73q248 0 402 164v402h-351q-192 0 -294.5 -79t-102.5 -208zM438 1214l257 314q7 8 19 8h27q12 0 4 -10l-259 -314q-7 -8 -18 -8h-26q-11 0 -4 10z" />
<glyph unicode="&#xe2;" horiz-adv-x="1075" d="M92 287q0 153 112.5 240t321.5 87h355v88q0 186 -91 266.5t-276 80.5q-168 0 -304 -64q-13 -6 -15 7l-2 14q-2 12 7 16q145 63 312 63q201 0 305.5 -86t104.5 -286v-701q0 -12 -11 -12h-18q-12 0 -12 12v115q-149 -152 -400 -152q-172 0 -280.5 81.5t-108.5 230.5z M133 291q0 -133 95 -206t251 -73q248 0 402 164v402h-351q-192 0 -294.5 -79t-102.5 -208zM227 1209.5q-2 5.5 3 10.5l269 308q6 8 15 8h33q9 0 15 -8l268 -308q3 -3 4 -7t-2 -6.5t-8 -2.5h-21q-9 0 -16 8l-257 297l-257 -297q-7 -8 -15 -8h-21q-8 0 -10 5.5z" />
<glyph unicode="&#xe3;" horiz-adv-x="1075" d="M92 287q0 153 112.5 240t321.5 87h355v88q0 186 -91 266.5t-276 80.5q-168 0 -304 -64q-13 -6 -15 7l-2 14q-2 12 7 16q145 63 312 63q201 0 305.5 -86t104.5 -286v-701q0 -12 -11 -12h-18q-12 0 -12 12v115q-149 -152 -400 -152q-172 0 -280.5 81.5t-108.5 230.5z M133 291q0 -133 95 -206t251 -73q248 0 402 164v402h-351q-192 0 -294.5 -79t-102.5 -208zM211 1247q3 133 46 195.5t114 62.5q29 0 53 -10t47 -33.5t34 -37.5t34 -47q25 -36 40 -54.5t41 -36.5t54 -18q51 0 83.5 53t35.5 168q0 12 12 12h16q13 0 13 -12 q-4 -133 -46.5 -195.5t-113.5 -62.5q-28 0 -52 9.5t-46.5 32.5t-34.5 38t-35 48q-25 36 -41 55t-41.5 36.5t-52.5 17.5q-51 0 -83.5 -52.5t-35.5 -168.5q0 -12 -12 -12h-18q-11 0 -11 12z" />
<glyph unicode="&#xe4;" horiz-adv-x="1075" d="M92 287q0 153 112.5 240t321.5 87h355v88q0 186 -91 266.5t-276 80.5q-168 0 -304 -64q-13 -6 -15 7l-2 14q-2 12 7 16q145 63 312 63q201 0 305.5 -86t104.5 -286v-701q0 -12 -11 -12h-18q-12 0 -12 12v115q-149 -152 -400 -152q-172 0 -280.5 81.5t-108.5 230.5z M133 291q0 -133 95 -206t251 -73q248 0 402 164v402h-351q-192 0 -294.5 -79t-102.5 -208zM307 1370q0 55 6 70.5t25 15.5t25 -15.5t6 -70.5t-6 -70.5t-25 -15.5t-25 15.5t-6 70.5zM721 1370q0 55 6 70.5t25 15.5t24.5 -15.5t5.5 -70.5t-5.5 -70.5t-24.5 -15.5t-25 15.5 t-6 70.5z" />
<glyph unicode="&#xe5;" horiz-adv-x="1075" d="M92 287q0 153 112.5 240t321.5 87h355v88q0 186 -91 266.5t-276 80.5q-168 0 -304 -64q-13 -6 -15 7l-2 14q-2 12 7 16q145 63 312 63q201 0 305.5 -86t104.5 -286v-701q0 -12 -11 -12h-18q-12 0 -12 12v115q-149 -152 -400 -152q-172 0 -280.5 81.5t-108.5 230.5z M133 291q0 -133 95 -206t251 -73q248 0 402 164v402h-351q-192 0 -294.5 -79t-102.5 -208zM344 1370q0 86 58.5 144.5t144.5 58.5t144.5 -58.5t58.5 -144.5t-58.5 -144.5t-144.5 -58.5t-144.5 58.5t-58.5 144.5zM381 1370q0 -69 48.5 -117.5t117.5 -48.5t117.5 48.5 t48.5 117.5t-48.5 117.5t-117.5 48.5t-117.5 -48.5t-48.5 -117.5z" />
<glyph unicode="&#xe6;" horiz-adv-x="1714" d="M92 287q0 156 106.5 241.5t313.5 85.5h299v88q0 181 -88 264t-238 83q-147 0 -275 -58q-14 -6 -15 6l-4 20q-1 6 9 11q127 57 283 57q161 0 255.5 -80.5t101.5 -238.5q40 149 136.5 234t237.5 85q188 0 298 -146t110 -384v-27q0 -12 -12 -12h-760q4 -130 38 -228.5 t91.5 -158t130.5 -88.5t160 -29q145 0 248 76q10 7 12 -4l3 -22q1 -8 -6 -12q-107 -75 -257 -75q-169 0 -283.5 98t-152.5 261q-44 -171 -148 -265t-266 -94q-132 0 -230 83t-98 229zM137 290q0 -88 42 -153t104.5 -95t134.5 -30q69 0 127 20.5t111 65.5t92.5 125t60.5 191 v164h-293q-187 0 -283 -77t-96 -211zM850 553h729q-1 222 -98.5 359t-266.5 137q-164 0 -264.5 -135.5t-99.5 -360.5z" />
<glyph unicode="&#xe7;" horiz-adv-x="993" d="M102 530q0 124 40 229t109 176t163 110.5t200 39.5q165 0 277 -51q9 -4 9 -11l-2 -21q-1 -11 -12 -6q-119 53 -272 53q-201 0 -336 -142t-135 -377q0 -236 136.5 -377t345.5 -141q157 0 268 60q13 7 16 -6l2 -15q2 -10 -10 -16q-101 -54 -247 -59l-66 -117 q97 -18 146.5 -65t49.5 -112q0 -77 -56 -123t-163 -46q-48 0 -87 11q-9 2 -9 12v14q0 8 5 11t11 1q41 -13 78 -13q90 0 135 35.5t45 97.5q0 58 -50 99.5t-144 51.5q-6 1 -8 6.5t1 10.5l71 125q-226 4 -368.5 155t-142.5 400z" />
<glyph unicode="&#xe8;" horiz-adv-x="1085" d="M102 535q0 252 124 401t321 149q193 0 319.5 -149.5t126.5 -382.5v-25q0 -4 -3.5 -8t-8.5 -4h-838q4 -224 125.5 -364t337.5 -140q162 0 283 77q10 6 12 -4l3 -20q1 -10 -7 -15q-120 -75 -295 -75q-155 0 -270 74.5t-172.5 200t-57.5 285.5zM143 553h809 q-1 217 -112.5 356.5t-292.5 139.5q-177 0 -289 -135.5t-115 -360.5zM312 1533q2 3 7 3h26q12 0 19 -8l257 -314q3 -4 0.5 -7t-7.5 -3h-23q-12 0 -19 8l-259 314q-3 4 -1 7z" />
<glyph unicode="&#xe9;" horiz-adv-x="1085" d="M102 535q0 252 124 401t321 149q193 0 319.5 -149.5t126.5 -382.5v-25q0 -4 -3.5 -8t-8.5 -4h-838q4 -224 125.5 -364t337.5 -140q162 0 283 77q10 6 12 -4l3 -20q1 -10 -7 -15q-120 -75 -295 -75q-155 0 -270 74.5t-172.5 200t-57.5 285.5zM143 553h809 q-1 217 -112.5 356.5t-292.5 139.5q-177 0 -289 -135.5t-115 -360.5zM453 1214l257 314q7 8 18 8h28q12 0 4 -10l-259 -314q-7 -8 -19 -8h-25q-11 0 -4 10z" />
<glyph unicode="&#xea;" horiz-adv-x="1085" d="M102 535q0 252 124 401t321 149q193 0 319.5 -149.5t126.5 -382.5v-25q0 -4 -3.5 -8t-8.5 -4h-838q4 -224 125.5 -364t337.5 -140q162 0 283 77q10 6 12 -4l3 -20q1 -10 -7 -15q-120 -75 -295 -75q-155 0 -270 74.5t-172.5 200t-57.5 285.5zM143 553h809 q-1 217 -112.5 356.5t-292.5 139.5q-177 0 -289 -135.5t-115 -360.5zM237.5 1209.5q-1.5 5.5 3.5 10.5l268 308q6 8 15 8h33q9 0 15 -8l269 -308q3 -3 4 -7t-2 -6.5t-8 -2.5h-22q-8 0 -15 8l-257 297l-257 -297q-7 -8 -16 -8h-21q-8 0 -9.5 5.5z" />
<glyph unicode="&#xeb;" horiz-adv-x="1085" d="M102 535q0 252 124 401t321 149q193 0 319.5 -149.5t126.5 -382.5v-25q0 -4 -3.5 -8t-8.5 -4h-838q4 -224 125.5 -364t337.5 -140q162 0 283 77q10 6 12 -4l3 -20q1 -10 -7 -15q-120 -75 -295 -75q-155 0 -270 74.5t-172.5 200t-57.5 285.5zM143 553h809 q-1 217 -112.5 356.5t-292.5 139.5q-177 0 -289 -135.5t-115 -360.5zM301 1370q0 55 6 70.5t25 15.5t24.5 -15.5t5.5 -70.5t-5.5 -70.5t-24.5 -15.5t-25 15.5t-6 70.5zM715 1370q0 55 5.5 70.5t24.5 15.5t25 -15.5t6 -70.5t-6 -70.5t-25 -15.5t-24.5 15.5t-5.5 70.5z" />
<glyph unicode="&#xec;" horiz-adv-x="389" d="M-75 1533q2 3 7 3h26q11 0 18 -8l257 -314q3 -4 1 -7t-7 -3h-23q-12 0 -19 8l-259 314q-3 4 -1 7zM174 12v1037q0 12 12 12h18q11 0 11 -12v-1037q0 -12 -11 -12h-18q-12 0 -12 12z" />
<glyph unicode="&#xed;" horiz-adv-x="389" d="M147 1214l257 314q7 8 19 8h28q12 0 4 -10l-259 -314q-7 -8 -19 -8h-25q-12 0 -5 10zM174 12v1037q0 12 12 12h18q11 0 11 -12v-1037q0 -12 -11 -12h-18q-12 0 -12 12z" />
<glyph unicode="&#xee;" horiz-adv-x="389" d="M-115 1209.5q-2 5.5 3 10.5l269 308q6 8 15 8h33q9 0 15 -8l268 -308q3 -3 4 -7t-2 -6.5t-8 -2.5h-21q-9 0 -16 8l-257 297l-257 -297q-7 -8 -15 -8h-21q-8 0 -10 5.5zM174 12v1037q0 12 12 12h18q11 0 11 -12v-1037q0 -12 -11 -12h-18q-12 0 -12 12z" />
<glyph unicode="&#xef;" horiz-adv-x="389" d="M-43 1370q0 55 6 70.5t25 15.5t24.5 -15.5t5.5 -70.5t-5.5 -70.5t-24.5 -15.5t-25 15.5t-6 70.5zM174 12v1037q0 12 12 12h18q11 0 11 -12v-1037q0 -12 -11 -12h-18q-12 0 -12 12zM371 1370q0 55 5.5 70.5t24.5 15.5t25 -15.5t6 -70.5t-6 -70.5t-25 -15.5t-24.5 15.5 t-5.5 70.5z" />
<glyph unicode="&#xf0;" horiz-adv-x="1073" d="M102 496q0 248 114.5 384t313.5 136q101 0 210 -55t173 -142q-25 278 -183 437l-461 -140q-4 -1 -9 1t-6 6l-4 15q-4 11 8 15l439 133q-130 113 -347 165q-12 2 -11 13l2 20q2 11 14 8q243 -59 387 -192l206 63q12 4 16 -8l4 -14q1 -4 -2 -9t-7 -6l-186 -56 q109 -116 149.5 -267.5t40.5 -338.5q0 -323 -115.5 -506t-336.5 -183q-182 0 -295.5 138.5t-113.5 382.5zM143 496q0 -218 99.5 -351t268.5 -133q202 0 306.5 174t104.5 480q0 32 -4 94q-79 106 -178.5 162.5t-209.5 56.5q-178 0 -282.5 -123t-104.5 -360z" />
<glyph unicode="&#xf1;" horiz-adv-x="1144" d="M164 12v1037q0 12 12 12h17q12 0 12 -12v-117q153 153 362 153q195 0 309.5 -119.5t114.5 -340.5v-613q0 -12 -12 -12h-18q-11 0 -11 12v609q0 205 -102 316.5t-281 111.5q-102 0 -199 -45.5t-163 -124.5v-867q0 -12 -12 -12h-17q-12 0 -12 12zM260 1247q3 133 46 195.5 t114 62.5q29 0 53 -10t47 -33.5t34 -37.5t34 -47q25 -36 40 -54.5t41 -36.5t54 -18q51 0 83.5 53t35.5 168q0 12 12 12h16q13 0 13 -12q-4 -133 -46.5 -195.5t-113.5 -62.5q-28 0 -52 9.5t-46.5 32.5t-34.5 38t-35 48q-25 36 -41 55t-41.5 36.5t-52.5 17.5 q-51 0 -83.5 -52.5t-35.5 -168.5q0 -12 -12 -12h-18q-11 0 -11 12z" />
<glyph unicode="&#xf2;" horiz-adv-x="1159" d="M102 530q0 242 136.5 398.5t341.5 156.5t341 -156.5t136 -398.5t-136 -398.5t-341 -156.5t-341.5 156.5t-136.5 398.5zM143 530q0 -231 123 -374.5t314 -143.5t313.5 143.5t122.5 374.5t-122.5 375t-313.5 144t-314 -144t-123 -375zM349 1533q2 3 7 3h26q11 0 18 -8 l257 -314q3 -4 1 -7t-7 -3h-23q-12 0 -19 8l-259 314q-3 4 -1 7z" />
<glyph unicode="&#xf3;" horiz-adv-x="1159" d="M102 530q0 242 136.5 398.5t341.5 156.5t341 -156.5t136 -398.5t-136 -398.5t-341 -156.5t-341.5 156.5t-136.5 398.5zM143 530q0 -231 123 -374.5t314 -143.5t313.5 143.5t122.5 374.5t-122.5 375t-313.5 144t-314 -144t-123 -375zM494 1214l257 314q7 8 18 8h28 q12 0 4 -10l-259 -314q-7 -8 -19 -8h-25q-11 0 -4 10z" />
<glyph unicode="&#xf4;" horiz-adv-x="1159" d="M102 530q0 242 136.5 398.5t341.5 156.5t341 -156.5t136 -398.5t-136 -398.5t-341 -156.5t-341.5 156.5t-136.5 398.5zM143 530q0 -231 123 -374.5t314 -143.5t313.5 143.5t122.5 374.5t-122.5 375t-313.5 144t-314 -144t-123 -375zM270 1209.5q-2 5.5 3 10.5l269 308 q6 8 15 8h33q9 0 15 -8l268 -308q3 -3 4 -7t-2 -6.5t-8 -2.5h-21q-9 0 -16 8l-257 297l-257 -297q-7 -8 -15 -8h-21q-8 0 -10 5.5z" />
<glyph unicode="&#xf5;" horiz-adv-x="1159" d="M102 530q0 242 136.5 398.5t341.5 156.5t341 -156.5t136 -398.5t-136 -398.5t-341 -156.5t-341.5 156.5t-136.5 398.5zM143 530q0 -231 123 -374.5t314 -143.5t313.5 143.5t122.5 374.5t-122.5 375t-313.5 144t-314 -144t-123 -375zM268 1247q3 133 46 195.5t114 62.5 q29 0 53 -10t47 -33.5t34 -37.5t34 -47q25 -36 40 -54.5t41 -36.5t54 -18q51 0 83.5 53t35.5 168q0 12 12 12h17q12 0 12 -12q-4 -133 -46.5 -195.5t-113.5 -62.5q-28 0 -52 9.5t-46.5 32.5t-34.5 38t-35 48q-25 36 -41 55t-41.5 36.5t-52.5 17.5q-51 0 -83.5 -52.5 t-35.5 -168.5q0 -12 -12 -12h-17q-12 0 -12 12z" />
<glyph unicode="&#xf6;" horiz-adv-x="1159" d="M102 530q0 242 136.5 398.5t341.5 156.5t341 -156.5t136 -398.5t-136 -398.5t-341 -156.5t-341.5 156.5t-136.5 398.5zM143 530q0 -231 123 -374.5t314 -143.5t313.5 143.5t122.5 374.5t-122.5 375t-313.5 144t-314 -144t-123 -375zM342 1370q0 55 6 70.5t25 15.5 t24.5 -15.5t5.5 -70.5t-5.5 -70.5t-24.5 -15.5t-25 15.5t-6 70.5zM756 1370q0 55 5.5 70.5t24.5 15.5t25 -15.5t6 -70.5t-6 -70.5t-25 -15.5t-24.5 15.5t-5.5 70.5z" />
<glyph unicode="&#xf7;" d="M143 672v14q0 12 13 12h954q12 0 12 -12v-14q0 -10 -12 -10h-954q-13 0 -13 10zM602 266q0 55 6 70.5t25 15.5t25 -15.5t6 -70.5t-6 -70.5t-25 -15.5t-25 15.5t-6 70.5zM602 1094q0 55 6 70.5t25 15.5t25 -15.5t6 -70.5t-6 -70.5t-25 -15.5t-25 15.5t-6 70.5z" />
<glyph unicode="&#xf8;" horiz-adv-x="1159" d="M102 530q0 242 136.5 398.5t341.5 156.5q138 0 253 -77l157 272q3 6 10 6h23q15 0 8 -14l-167 -289q91 -74 142 -191.5t51 -261.5q0 -242 -136 -398.5t-341 -156.5q-140 0 -253 77l-157 -271q-3 -6 -10 -6h-23q-15 0 -8 14l166 288q-91 74 -142 191t-51 262zM143 530 q0 -136 45 -244.5t125 -176.5l502 867q-104 73 -235 73q-191 0 -314 -144t-123 -375zM344 84q103 -72 236 -72q191 0 313.5 143.5t122.5 374.5q0 135 -45 243.5t-125 177.5z" />
<glyph unicode="&#xf9;" horiz-adv-x="1144" d="M154 436v613q0 12 12 12h17q12 0 12 -12v-609q0 -205 102 -316.5t281 -111.5q102 0 199 45.5t163 124.5v867q0 12 12 12h17q12 0 12 -12v-1037q0 -12 -12 -12h-17q-12 0 -12 12v117q-154 -154 -362 -154q-195 0 -309.5 120t-114.5 341zM312 1533q2 3 7 3h26q12 0 19 -8 l257 -314q3 -4 0.5 -7t-7.5 -3h-23q-12 0 -19 8l-259 314q-3 4 -1 7z" />
<glyph unicode="&#xfa;" horiz-adv-x="1144" d="M154 436v613q0 12 12 12h17q12 0 12 -12v-609q0 -205 102 -316.5t281 -111.5q102 0 199 45.5t163 124.5v867q0 12 12 12h17q12 0 12 -12v-1037q0 -12 -12 -12h-17q-12 0 -12 12v117q-154 -154 -362 -154q-195 0 -309.5 120t-114.5 341zM506 1214l257 314q7 8 18 8h28 q12 0 4 -10l-259 -314q-7 -8 -18 -8h-26q-11 0 -4 10z" />
<glyph unicode="&#xfb;" horiz-adv-x="1144" d="M154 436v613q0 12 12 12h17q12 0 12 -12v-609q0 -205 102 -316.5t281 -111.5q102 0 199 45.5t163 124.5v867q0 12 12 12h17q12 0 12 -12v-1037q0 -12 -12 -12h-17q-12 0 -12 12v117q-154 -154 -362 -154q-195 0 -309.5 120t-114.5 341zM257.5 1209.5q-1.5 5.5 3.5 10.5 l268 308q6 8 16 8h33q9 0 15 -8l268 -308q3 -3 4 -7t-2 -6.5t-8 -2.5h-21q-9 0 -16 8l-257 297l-257 -297q-7 -8 -15 -8h-22q-8 0 -9.5 5.5z" />
<glyph unicode="&#xfc;" horiz-adv-x="1144" d="M154 436v613q0 12 12 12h17q12 0 12 -12v-609q0 -205 102 -316.5t281 -111.5q102 0 199 45.5t163 124.5v867q0 12 12 12h17q12 0 12 -12v-1037q0 -12 -12 -12h-17q-12 0 -12 12v117q-154 -154 -362 -154q-195 0 -309.5 120t-114.5 341zM330 1370q0 55 5.5 70.5t24.5 15.5 t25 -15.5t6 -70.5t-6 -70.5t-25 -15.5t-24.5 15.5t-5.5 70.5zM743 1370q0 55 6 70.5t25 15.5t25 -15.5t6 -70.5t-6 -70.5t-25 -15.5t-25 15.5t-6 70.5z" />
<glyph unicode="&#xfd;" horiz-adv-x="1034" d="M54 1047q-5 14 9 14h21q8 0 12 -7l429 -1003l407 1003q3 7 11 7h22q15 0 9 -15l-580 -1431q-4 -10 -13 -10h-21q-15 0 -9 15l154 381zM469 1214l257 314q7 8 18 8h28q12 0 4 -10l-259 -314q-7 -8 -18 -8h-26q-11 0 -4 10z" />
<glyph unicode="&#xfe;" horiz-adv-x="1144" d="M164 -383v1866q0 12 12 12h17q12 0 12 -12v-545q60 65 149.5 106t198.5 41q102 0 190.5 -37.5t155 -106.5t105 -175.5t38.5 -235.5t-38.5 -235.5t-105 -175.5t-155 -106.5t-190.5 -37.5q-109 0 -198 41t-150 107v-506q0 -12 -12 -12h-17q-12 0 -12 12zM205 176 q61 -76 153 -120t195 -44q194 0 321 138t127 380q0 241 -127.5 380t-320.5 139q-103 0 -195 -44t-153 -120v-709z" />
<glyph unicode="&#xff;" horiz-adv-x="1034" d="M54 1047q-5 14 9 14h21q8 0 12 -7l429 -1003l407 1003q3 7 11 7h22q15 0 9 -15l-580 -1431q-4 -10 -13 -10h-21q-15 0 -9 15l154 381zM281 1370q0 55 5.5 70.5t24.5 15.5t25 -15.5t6 -70.5t-6 -70.5t-25 -15.5t-24.5 15.5t-5.5 70.5zM694 1370q0 55 6 70.5t25 15.5 t25 -15.5t6 -70.5t-6 -70.5t-25 -15.5t-25 15.5t-6 70.5z" />
<glyph unicode="&#x152;" horiz-adv-x="1656" d="M113 717q0 332 190.5 524.5t506.5 192.5h724q12 0 12 -13v-13q0 -11 -12 -11h-668v-637h617q12 0 12 -12v-13q0 -12 -12 -12h-617v-686h686q13 0 13 -11v-14q0 -12 -13 -12h-742q-316 0 -506.5 192t-190.5 525zM158 717q0 -317 177.5 -498.5t475.5 -181.5h14v1360h-14 q-298 0 -475.5 -181.5t-177.5 -498.5z" />
<glyph unicode="&#x153;" horiz-adv-x="1818" d="M102 530q0 250 117.5 402.5t308.5 152.5q147 0 258 -102.5t146 -268.5q35 179 137 275t251 96q189 0 297.5 -146t108.5 -384v-27q0 -12 -11 -12h-761q4 -130 37.5 -228.5t91 -157.5t130.5 -88.5t161 -29.5q144 0 248 76q10 6 12 -5l3 -20q2 -8 -6 -13q-105 -75 -257 -75 q-174 0 -291 105t-149 280q-34 -175 -144 -280t-262 -105q-191 0 -308.5 152.5t-117.5 402.5zM143 530q0 -239 106 -378.5t279 -139.5t279 139.5t106 378.5t-106 379t-279 140q-171 0 -278 -140t-107 -379zM954 553h729q0 221 -98 358.5t-265 137.5q-165 0 -265 -133.5 t-101 -362.5z" />
<glyph unicode="&#x178;" horiz-adv-x="1290" d="M65 1429q2 5 9 5h24q10 0 13 -7l530 -815l530 815q3 7 13 7h24q7 0 9 -5t-2 -10l-553 -848v-559q0 -12 -13 -12h-16q-12 0 -12 12v559l-554 848q-4 5 -2 10zM408 1726q0 55 5.5 70.5t24.5 15.5t25 -15.5t6 -70.5t-6 -70.5t-25 -15.5t-24.5 15.5t-5.5 70.5zM821 1726 q0 55 6 70.5t25 15.5t25 -15.5t6 -70.5t-6 -70.5t-25 -15.5t-25 15.5t-6 70.5z" />
<glyph unicode="&#x2c6;" horiz-adv-x="790" d="M85.5 1168.5q-1.5 5.5 3.5 10.5l268 308q6 8 16 8h33q9 0 15 -8l268 -308q3 -3 4 -7t-2 -6.5t-8 -2.5h-21q-9 0 -16 8l-257 297l-257 -297q-7 -8 -15 -8h-22q-8 0 -9.5 5.5z" />
<glyph unicode="&#x2dc;" horiz-adv-x="790" d="M84 1210q3 133 46 195.5t114 62.5q29 0 53 -10t47 -33.5t34 -37.5t34 -47q25 -36 40 -54.5t41 -36.5t54 -18q51 0 83.5 53t35.5 168q0 12 12 12h16q13 0 13 -12q-4 -133 -46.5 -195.5t-113.5 -62.5q-28 0 -52 9.5t-46.5 32.5t-34.5 38t-35 48q-26 37 -41.5 56t-41 36.5 t-52.5 17.5q-51 0 -83.5 -53t-35.5 -169q0 -12 -12 -12h-18q-11 0 -11 12z" />
<glyph unicode="&#x2000;" horiz-adv-x="964" />
<glyph unicode="&#x2001;" horiz-adv-x="1929" />
<glyph unicode="&#x2002;" horiz-adv-x="964" />
<glyph unicode="&#x2003;" horiz-adv-x="1929" />
<glyph unicode="&#x2004;" horiz-adv-x="643" />
<glyph unicode="&#x2005;" horiz-adv-x="482" />
<glyph unicode="&#x2006;" horiz-adv-x="321" />
<glyph unicode="&#x2007;" horiz-adv-x="321" />
<glyph unicode="&#x2008;" horiz-adv-x="241" />
<glyph unicode="&#x2009;" horiz-adv-x="385" />
<glyph unicode="&#x200a;" horiz-adv-x="107" />
<glyph unicode="&#x2010;" horiz-adv-x="831" d="M143 673v13q0 5 4 8.5t9 3.5h520q12 0 12 -12v-13q0 -11 -12 -11h-520q-13 0 -13 11z" />
<glyph unicode="&#x2011;" horiz-adv-x="831" d="M143 673v13q0 5 4 8.5t9 3.5h520q12 0 12 -12v-13q0 -11 -12 -11h-520q-13 0 -13 11z" />
<glyph unicode="&#x2012;" horiz-adv-x="831" d="M143 673v13q0 5 4 8.5t9 3.5h520q12 0 12 -12v-13q0 -11 -12 -11h-520q-13 0 -13 11z" />
<glyph unicode="&#x2013;" horiz-adv-x="1024" d="M0 662v36h1024v-36h-1024z" />
<glyph unicode="&#x2014;" horiz-adv-x="2048" d="M0 662v36h2048v-36h-2048z" />
<glyph unicode="&#x2018;" horiz-adv-x="573" d="M256 1270v35q0 121 82 223q3 5 8.5 5.5t9.5 -4.5l16 -21q5 -7 -1 -16q-54 -82 -54 -179v-43q0 -55 -5.5 -70.5t-24.5 -15.5t-25 16t-6 70z" />
<glyph unicode="&#x2019;" horiz-adv-x="573" d="M200 1215q-5 7 1 17q53 81 53 179v43q0 54 6 70t25 16t24.5 -15.5t5.5 -70.5v-35q0 -121 -82 -223q-3 -5 -8.5 -5.5t-9.5 4.5z" />
<glyph unicode="&#x201a;" horiz-adv-x="573" d="M200 -177q-5 7 1 16q53 81 53 179v43q0 54 6 70t25 16t24.5 -15.5t5.5 -70.5v-34q0 -122 -82 -224q-3 -5 -8.5 -5.5t-9.5 4.5z" />
<glyph unicode="&#x201c;" horiz-adv-x="774" d="M256 1270v35q0 121 82 223q3 5 8.5 5.5t9.5 -4.5l16 -21q5 -7 -1 -16q-54 -82 -54 -179v-43q0 -55 -5.5 -70.5t-24.5 -15.5t-25 16t-6 70zM457 1270v35q0 121 82 223q3 5 8.5 5.5t9.5 -4.5l15 -21q5 -7 -1 -16q-53 -81 -53 -179v-43q0 -54 -6 -70t-25 -16t-24.5 15.5 t-5.5 70.5z" />
<glyph unicode="&#x201d;" horiz-adv-x="774" d="M200 1215q-5 7 1 17q53 81 53 179v43q0 54 6 70t25 16t24.5 -15.5t5.5 -70.5v-35q0 -121 -82 -223q-3 -5 -8.5 -5.5t-9.5 4.5zM400 1215q-5 7 1 17q54 82 54 179v43q0 55 5.5 70.5t24.5 15.5t25 -16t6 -70v-35q0 -121 -82 -223q-3 -5 -8.5 -5.5t-9.5 4.5z" />
<glyph unicode="&#x201e;" horiz-adv-x="774" d="M200 -177q-5 7 1 16q53 81 53 179v43q0 54 6 70t25 16t24.5 -15.5t5.5 -70.5v-34q0 -122 -82 -224q-3 -5 -8.5 -5.5t-9.5 4.5zM400 -177q-5 7 1 16q54 83 54 179v43q0 55 5.5 70.5t24.5 15.5t25 -16t6 -70v-34q0 -122 -82 -224q-3 -5 -8.5 -5.5t-9.5 4.5z" />
<glyph unicode="&#x2022;" horiz-adv-x="712" d="M225 680q0 131 131 131t131 -131t-131 -131t-131 131z" />
<glyph unicode="&#x2026;" horiz-adv-x="1720" d="M256 61q0 55 6 70.5t25 15.5t24.5 -15.5t5.5 -70.5t-5.5 -70.5t-24.5 -15.5t-25 15.5t-6 70.5zM829 61q0 55 6 70.5t25 15.5t25 -15.5t6 -70.5t-6 -70.5t-25 -15.5t-25 15.5t-6 70.5zM1403 61q0 55 6 70.5t25 15.5t24.5 -15.5t5.5 -70.5t-5.5 -70.5t-24.5 -15.5t-25 15.5 t-6 70.5z" />
<glyph unicode="&#x202f;" horiz-adv-x="385" />
<glyph unicode="&#x2039;" horiz-adv-x="722" d="M164 631v16q0 10 9 17l391 364q3 3 7 4t6.5 -2t2.5 -8v-14q0 -9 -9 -16l-383 -353l383 -353q9 -7 9 -16v-14q0 -8 -5.5 -9.5t-10.5 3.5l-391 364q-9 7 -9 17z" />
<glyph unicode="&#x203a;" horiz-adv-x="722" d="M143 256v14q0 8 9 16l383 353l-383 353q-9 7 -9 16v14q0 8 5.5 9.5t10.5 -3.5l391 -364q9 -7 9 -17v-16q0 -10 -9 -17l-391 -364q-3 -3 -7 -4t-6.5 2t-2.5 8z" />
<glyph unicode="&#x205f;" horiz-adv-x="482" />
<glyph unicode="&#x20ac;" horiz-adv-x="1210" d="M61 582v12q0 12 13 12h106q-6 72 -6 111q0 59 4 106h-104q-13 0 -13 13v12q0 12 13 12h110q38 275 211 436.5t439 161.5q139 0 256 -46q12 -5 11 -15l-2 -18q-2 -14 -13 -8q-112 50 -250 50q-247 0 -409 -151.5t-198 -409.5h723q13 0 9 -12l-5 -12q-5 -13 -17 -13h-716 q-4 -47 -4 -106q0 -39 6 -111h652q12 0 8 -12l-4 -12q-4 -13 -18 -13h-634q38 -258 199 -407.5t408 -149.5q137 0 257 53q4 2 8 0t4 -7l2 -22q0 -7 -6 -10q-109 -51 -267 -51q-264 0 -437.5 161t-212.5 433h-110q-13 0 -13 13z" />
<glyph unicode="&#x2122;" horiz-adv-x="1359" d="M41 1409v12q0 13 12 13h462q11 0 11 -13v-12q0 -12 -11 -12h-210v-609q0 -12 -11 -12h-18q-12 0 -12 12v609h-211q-12 0 -12 12zM600 786v635q0 13 11 13h44q5 0 11 -6l252 -357l253 357q6 6 11 6h44q11 0 11 -13v-635q0 -12 -11 -12h-18q-12 0 -12 12v607l-260 -368 q-5 -5 -10 -5h-15q-5 0 -10 5l-260 368v-607q0 -12 -12 -12h-18q-11 0 -11 12z" />
<glyph unicode="&#x25fc;" horiz-adv-x="1059" d="M0 0v1060h1060v-1060h-1060z" />
<glyph unicode="&#xfb01;" horiz-adv-x="1040" d="M10 1036v13q0 4 4 8t9 4h233v59q0 204 69.5 289.5t209.5 85.5q52 0 109 -13q11 -3 9 -16l-2 -12q-2 -12 -15 -8q-43 12 -108 12q-116 0 -173.5 -77t-57.5 -261v-59h321q5 0 9 -4t4 -8v-13q0 -4 -4 -8t-9 -4h-321v-1012q0 -4 -3.5 -8t-8.5 -4h-17q-4 0 -8 4t-4 8v1012 h-233q-5 0 -9 4t-4 8zM815 1409q0 55 6 70.5t25 15.5t25 -15.5t6 -70.5t-6 -70.5t-25 -15.5t-25 15.5t-6 70.5zM825 12v1037q0 4 4 8t9 4h16q4 0 8 -3.5t4 -8.5v-1037q0 -4 -4 -8t-8 -4h-16q-5 0 -9 4t-4 8z" />
<glyph unicode="&#xfb02;" horiz-adv-x="1040" d="M10 1036v13q0 4 4 8t9 4h233v59q0 204 69.5 289.5t209.5 85.5q52 0 109 -13q11 -3 9 -16l-2 -12q-2 -12 -15 -8q-43 12 -108 12q-116 0 -173.5 -77t-57.5 -261v-59h321q5 0 9 -4t4 -8v-13q0 -4 -4 -8t-9 -4h-321v-1012q0 -4 -3.5 -8t-8.5 -4h-17q-4 0 -8 4t-4 8v1012 h-233q-5 0 -9 4t-4 8zM825 12v1471q0 4 4 8t9 4h16q4 0 8 -3.5t4 -8.5v-1471q0 -4 -4 -8t-8 -4h-16q-5 0 -9 4t-4 8z" />
<glyph unicode="&#xfb03;" horiz-adv-x="1619" d="M10 1036v13q0 4 4 8t9 4h233v59q0 205 79 290t243 85q83 0 148 -17q11 -3 9 -16l-2 -12q-2 -12 -15 -8q-61 16 -147 16q-141 0 -207.5 -76t-66.5 -262v-59h539v59q0 204 69.5 289.5t209.5 85.5q53 0 110 -13q11 -3 9 -16l-2 -12q-2 -12 -15 -8q-43 12 -108 12 q-116 0 -174 -77t-58 -261v-59h321q4 0 8 -3.5t4 -8.5v-13q0 -4 -4 -8t-8 -4h-321v-1012q0 -4 -4 -8t-9 -4h-16q-4 0 -8 4t-4 8v1012h-539v-1012q0 -4 -3.5 -8t-8.5 -4h-17q-4 0 -8 4t-4 8v1012h-233q-5 0 -9 4t-4 8zM1395 1409q0 55 5.5 70.5t24.5 15.5t25 -15.5t6 -70.5 t-6 -70.5t-25 -15.5t-24.5 15.5t-5.5 70.5zM1405 12v1037q0 5 3.5 8.5t8.5 3.5h17q4 0 8 -3.5t4 -8.5v-1037q0 -4 -4 -8t-8 -4h-17q-5 0 -8.5 4t-3.5 8z" />
<glyph unicode="&#xfb04;" horiz-adv-x="1619" d="M10 1036v13q0 4 4 8t9 4h233v59q0 205 79 290t243 85q83 0 148 -17q11 -3 9 -16l-2 -12q-2 -12 -15 -8q-61 16 -147 16q-141 0 -207.5 -76t-66.5 -262v-59h539v59q0 204 69.5 289.5t209.5 85.5q53 0 110 -13q11 -3 9 -16l-2 -12q-2 -12 -15 -8q-43 12 -108 12 q-116 0 -174 -77t-58 -261v-59h321q4 0 8 -3.5t4 -8.5v-13q0 -4 -4 -8t-8 -4h-321v-1012q0 -4 -4 -8t-9 -4h-16q-4 0 -8 4t-4 8v1012h-539v-1012q0 -4 -3.5 -8t-8.5 -4h-17q-4 0 -8 4t-4 8v1012h-233q-5 0 -9 4t-4 8zM1405 12v1471q0 5 3.5 8.5t8.5 3.5h17q4 0 8 -3.5 t4 -8.5v-1471q0 -4 -4 -8t-8 -4h-17q-5 0 -8.5 4t-3.5 8z" />
</font>
</defs>
</svg>
